<svg width="38" height="38" viewBox="0 0 38 38" fill="none" xmlns="http://www.w3.org/2000/svg">
<path d="M19 7.91683C19.0019 7.28354 18.8771 6.65628 18.633 6.07193C18.3889 5.48758 18.0304 4.95794 17.5786 4.51416C17.1268 4.07038 16.5908 3.72143 16.0022 3.48782C15.4136 3.25421 14.7842 3.14067 14.1511 3.15386C13.5179 3.16706 12.8938 3.30673 12.3154 3.56467C11.737 3.8226 11.2161 4.19358 10.7832 4.6558C10.3502 5.11802 10.0141 5.66214 9.7946 6.25615C9.57506 6.85017 9.47651 7.48209 9.50477 8.11474C8.57408 8.35404 7.71006 8.80199 6.97813 9.42466C6.2462 10.0473 5.66556 10.8284 5.28019 11.7087C4.89481 12.589 4.7148 13.5454 4.7538 14.5056C4.79279 15.4657 5.04977 16.4044 5.50527 17.2506C4.70438 17.9012 4.07461 18.7377 3.67072 19.6872C3.26683 20.6368 3.10107 21.6706 3.18784 22.6988C3.27462 23.727 3.61131 24.7185 4.16862 25.5869C4.72594 26.4553 5.487 27.1744 6.3856 27.6816C6.27463 28.5401 6.34085 29.4123 6.58017 30.2442C6.81949 31.0762 7.22682 31.8502 7.77701 32.5186C8.3272 33.1869 9.00857 33.7354 9.77903 34.1301C10.5495 34.5248 11.3927 34.7574 12.2566 34.8134C13.1204 34.8695 13.9866 34.7479 14.8016 34.456C15.6166 34.1642 16.3632 33.7084 16.9951 33.1168C17.6271 32.5251 18.131 31.8102 18.4759 31.0162C18.8207 30.2221 18.9991 29.3658 19 28.5002V7.91683Z" stroke="#318138" stroke-width="2" stroke-linecap="round" stroke-linejoin="round"/>
<path d="M19 7.91683C18.9982 7.28354 19.1229 6.65628 19.367 6.07193C19.6111 5.48758 19.9696 4.95794 20.4214 4.51416C20.8732 4.07038 21.4092 3.72143 21.9978 3.48782C22.5864 3.25421 23.2158 3.14067 23.849 3.15386C24.4821 3.16706 25.1063 3.30673 25.6846 3.56467C26.263 3.8226 26.784 4.19358 27.2169 4.6558C27.6498 5.11802 27.9859 5.66214 28.2054 6.25615C28.425 6.85017 28.5235 7.48209 28.4953 8.11474C29.426 8.35404 30.29 8.80199 31.0219 9.42466C31.7538 10.0473 32.3345 10.8284 32.7199 11.7087C33.1052 12.589 33.2852 13.5454 33.2462 14.5056C33.2072 15.4657 32.9503 16.4044 32.4948 17.2506C33.2957 17.9012 33.9254 18.7377 34.3293 19.6872C34.7332 20.6368 34.899 21.6706 34.8122 22.6988C34.7254 23.727 34.3887 24.7185 33.8314 25.5869C33.2741 26.4553 32.513 27.1744 31.6144 27.6816C31.7254 28.5401 31.6592 29.4123 31.4199 30.2442C31.1805 31.0762 30.7732 31.8502 30.223 32.5186C29.6728 33.1869 28.9915 33.7354 28.221 34.1301C27.4505 34.5248 26.6073 34.7574 25.7435 34.8134C24.8796 34.8695 24.0134 34.7479 23.1984 34.456C22.3834 34.1642 21.6369 33.7084 21.0049 33.1168C20.3729 32.5251 19.869 31.8102 19.5242 31.0162C19.1793 30.2221 19.0009 29.3658 19 28.5002V7.91683Z" stroke="#318138" stroke-width="2" stroke-linecap="round" stroke-linejoin="round"/>
<path d="M23.75 20.5833C22.4207 20.1157 21.2599 19.2644 20.4144 18.1371C19.5689 17.0098 19.0767 15.6571 19 14.25C18.9233 15.6571 18.4311 17.0098 17.5856 18.1371C16.7401 19.2644 15.5793 20.1157 14.25 20.5833" stroke="#318138" stroke-width="2" stroke-linecap="round" stroke-linejoin="round"/>
<path d="M27.8651 10.2918C28.2483 9.62776 28.4651 8.88079 28.4969 8.11475" stroke="#318138" stroke-width="2" stroke-linecap="round" stroke-linejoin="round"/>
<path d="M9.50476 8.11475C9.53607 8.88066 9.75228 9.62761 10.1349 10.2918" stroke="#318138" stroke-width="2" stroke-linecap="round" stroke-linejoin="round"/>
<path d="M5.50525 17.252C5.7949 17.0161 6.10486 16.8063 6.4315 16.625" stroke="#318138" stroke-width="2" stroke-linecap="round" stroke-linejoin="round"/>
<path d="M31.5685 16.625C31.8951 16.8063 32.2051 17.0161 32.4947 17.252" stroke="#318138" stroke-width="2" stroke-linecap="round" stroke-linejoin="round"/>
<path d="M9.49998 28.5001C8.40879 28.5006 7.33598 28.2192 6.38556 27.6831" stroke="#318138" stroke-width="2" stroke-linecap="round" stroke-linejoin="round"/>
<path d="M31.6144 27.6831C30.664 28.2192 29.5912 28.5006 28.5 28.5001" stroke="#318138" stroke-width="2" stroke-linecap="round" stroke-linejoin="round"/>
</svg>
