<svg width="38" height="38" viewBox="0 0 38 38" fill="none" xmlns="http://www.w3.org/2000/svg">
<path d="M25.3333 25.3332L30.0833 12.6665L34.8333 25.3332C33.4558 26.3623 31.7933 26.9165 30.0833 26.9165C28.3733 26.9165 26.7108 26.3623 25.3333 25.3332Z" stroke="#318138" stroke-width="2" stroke-linecap="round" stroke-linejoin="round"/>
<path d="M3.16666 25.3332L7.91666 12.6665L12.6667 25.3332C11.2892 26.3623 9.62666 26.9165 7.91666 26.9165C6.20666 26.9165 4.54416 26.3623 3.16666 25.3332Z" stroke="#318138" stroke-width="2" stroke-linecap="round" stroke-linejoin="round"/>
<path d="M11.0833 33.25H26.9167" stroke="#318138" stroke-width="2" stroke-linecap="round" stroke-linejoin="round"/>
<path d="M19 4.75V33.25" stroke="#318138" stroke-width="2" stroke-linecap="round" stroke-linejoin="round"/>
<path d="M4.75 11.0832H7.91667C11.0833 11.0832 15.8333 9.49984 19 7.9165C22.1667 9.49984 26.9167 11.0832 30.0833 11.0832H33.25" stroke="#318138" stroke-width="2" stroke-linecap="round" stroke-linejoin="round"/>
</svg>
