<svg width="28" height="29" viewBox="0 0 28 29" fill="none" xmlns="http://www.w3.org/2000/svg">
<path d="M23.2102 15.5945C23.2102 21.3916 19.1522 24.2901 14.329 25.9713C14.0765 26.0569 13.8021 26.0528 13.5522 25.9597C8.71745 24.2901 4.65948 21.3916 4.65948 15.5945V7.47853C4.65948 7.17104 4.78164 6.87613 4.99907 6.6587C5.2165 6.44127 5.51141 6.31911 5.8189 6.31911C8.13774 6.31911 11.0363 4.92781 13.0537 3.16549C13.2993 2.95563 13.6118 2.84033 13.9348 2.84033C14.2579 2.84033 14.5704 2.95563 14.816 3.16549C16.845 4.9394 19.7319 6.31911 22.0508 6.31911C22.3583 6.31911 22.6532 6.44127 22.8706 6.6587C23.0881 6.87613 23.2102 7.17104 23.2102 7.47853V15.5945Z" stroke="#318138" stroke-width="1.73913" stroke-linecap="round" stroke-linejoin="round"/>
</svg>
