<svg width="28" height="29" viewBox="0 0 28 29" fill="none" xmlns="http://www.w3.org/2000/svg">
<path d="M18.5724 24.8696V22.5508C18.5724 21.3208 18.0838 20.1412 17.2141 19.2714C16.3444 18.4017 15.1648 17.9131 13.9348 17.9131H6.97824C5.74825 17.9131 4.56864 18.4017 3.69891 19.2714C2.82917 20.1412 2.34056 21.3208 2.34056 22.5508V24.8696" stroke="#318138" stroke-width="1.73913" stroke-linecap="round" stroke-linejoin="round"/>
<path d="M10.4565 13.2754C13.0178 13.2754 15.0942 11.199 15.0942 8.63768C15.0942 6.07636 13.0178 4 10.4565 4C7.89518 4 5.81882 6.07636 5.81882 8.63768C5.81882 11.199 7.89518 13.2754 10.4565 13.2754Z" stroke="#318138" stroke-width="1.73913" stroke-linecap="round" stroke-linejoin="round"/>
<path d="M25.529 24.8698V22.5509C25.5283 21.5234 25.1863 20.5251 24.5567 19.713C23.9272 18.9009 23.0457 18.3209 22.0508 18.064" stroke="#318138" stroke-width="1.73913" stroke-linecap="round" stroke-linejoin="round"/>
<path d="M18.5725 4.15088C19.5701 4.4063 20.4543 4.98647 21.0857 5.79993C21.7171 6.6134 22.0599 7.61387 22.0599 8.64363C22.0599 9.6734 21.7171 10.6739 21.0857 11.4873C20.4543 12.3008 19.5701 12.881 18.5725 13.1364" stroke="#318138" stroke-width="1.73913" stroke-linecap="round" stroke-linejoin="round"/>
</svg>
