<svg width="38" height="38" viewBox="0 0 38 38" fill="none" xmlns="http://www.w3.org/2000/svg">
<path d="M23.75 3.16699H9.49998C8.66013 3.16699 7.85467 3.50062 7.26081 4.09449C6.66694 4.68835 6.33331 5.49381 6.33331 6.33366V31.667C6.33331 32.5068 6.66694 33.3123 7.26081 33.9062C7.85467 34.5 8.66013 34.8337 9.49998 34.8337H28.5C29.3398 34.8337 30.1453 34.5 30.7392 33.9062C31.333 33.3123 31.6666 32.5068 31.6666 31.667V11.0837L23.75 3.16699Z" stroke="#318138" stroke-width="3" stroke-linecap="round" stroke-linejoin="round"/>
<path d="M22.1667 3.16699V9.50033C22.1667 10.3402 22.5003 11.1456 23.0942 11.7395C23.688 12.3334 24.4935 12.667 25.3334 12.667H31.6667" stroke="#318138" stroke-width="3" stroke-linecap="round" stroke-linejoin="round"/>
<path d="M15.8334 14.25H12.6667" stroke="#318138" stroke-width="3" stroke-linecap="round" stroke-linejoin="round"/>
<path d="M25.3334 20.583H12.6667" stroke="#318138" stroke-width="3" stroke-linecap="round" stroke-linejoin="round"/>
<path d="M25.3334 26.917H12.6667" stroke="#318138" stroke-width="3" stroke-linecap="round" stroke-linejoin="round"/>
</svg>
