<svg width="38" height="38" viewBox="0 0 38 38" fill="none" xmlns="http://www.w3.org/2000/svg">
<path d="M34.8334 26.7905V31.5405C34.8352 31.9814 34.7449 32.4179 34.5682 32.8219C34.3915 33.226 34.1324 33.5887 33.8075 33.8868C33.4826 34.1849 33.099 34.4118 32.6812 34.5531C32.2635 34.6944 31.8209 34.7468 31.3817 34.7071C26.5095 34.1777 21.8295 32.5129 17.7176 29.8463C13.892 27.4154 10.6485 24.1719 8.21756 20.3463C5.54169 16.2157 3.87644 11.5129 3.35672 6.61881C3.31716 6.18097 3.36919 5.73968 3.50952 5.32305C3.64984 4.90642 3.87538 4.52357 4.17177 4.19888C4.46816 3.87419 4.82891 3.61477 5.23106 3.43714C5.6332 3.25951 6.06793 3.16756 6.50756 3.16715H11.2576C12.026 3.15958 12.7709 3.43169 13.3535 3.93274C13.9361 4.43379 14.3167 5.1296 14.4242 5.89048C14.6247 7.41058 14.9965 8.90313 15.5326 10.3396C15.7456 10.9064 15.7917 11.5223 15.6654 12.1144C15.5391 12.7065 15.2458 13.25 14.8201 13.6805L12.8092 15.6913C15.0632 19.6553 18.3453 22.9374 22.3092 25.1913L24.3201 23.1805C24.7505 22.7548 25.2941 22.4614 25.8862 22.3351C26.4783 22.2088 27.0942 22.255 27.6609 22.468C29.0974 23.004 30.59 23.3758 32.1101 23.5763C32.8792 23.6848 33.5816 24.0722 34.0837 24.6648C34.5859 25.2575 34.8527 26.014 34.8334 26.7905Z" stroke="#45A14D" stroke-width="3" stroke-linecap="round" stroke-linejoin="round"/>
</svg>
