<svg width="38" height="38" viewBox="0 0 38 38" fill="none" xmlns="http://www.w3.org/2000/svg">
<path d="M22.1667 28.4997V9.49967C22.1667 8.65982 21.8331 7.85437 21.2392 7.2605C20.6453 6.66664 19.8399 6.33301 19 6.33301H6.33335C5.4935 6.33301 4.68805 6.66664 4.09418 7.2605C3.50032 7.85437 3.16669 8.65982 3.16669 9.49967V26.9163C3.16669 27.3363 3.3335 27.739 3.63043 28.0359C3.92737 28.3329 4.33009 28.4997 4.75002 28.4997H7.91669" stroke="#45A14D" stroke-width="3" stroke-linecap="round" stroke-linejoin="round"/>
<path d="M23.75 28.5H14.25" stroke="#45A14D" stroke-width="3" stroke-linecap="round" stroke-linejoin="round"/>
<path d="M30.0834 28.5003H33.25C33.6699 28.5003 34.0727 28.3335 34.3696 28.0366C34.6665 27.7396 34.8334 27.3369 34.8334 26.917V21.1378C34.8327 20.7785 34.7099 20.4301 34.485 20.1498L28.975 13.2623C28.8269 13.0769 28.6391 12.9271 28.4253 12.8241C28.2115 12.721 27.9773 12.6673 27.74 12.667H22.1667" stroke="#45A14D" stroke-width="3" stroke-linecap="round" stroke-linejoin="round"/>
<path d="M26.9167 31.6663C28.6656 31.6663 30.0833 30.2486 30.0833 28.4997C30.0833 26.7508 28.6656 25.333 26.9167 25.333C25.1678 25.333 23.75 26.7508 23.75 28.4997C23.75 30.2486 25.1678 31.6663 26.9167 31.6663Z" stroke="#45A14D" stroke-width="3" stroke-linecap="round" stroke-linejoin="round"/>
<path d="M11.0834 31.6663C12.8323 31.6663 14.25 30.2486 14.25 28.4997C14.25 26.7508 12.8323 25.333 11.0834 25.333C9.33445 25.333 7.91669 26.7508 7.91669 28.4997C7.91669 30.2486 9.33445 31.6663 11.0834 31.6663Z" stroke="#45A14D" stroke-width="3" stroke-linecap="round" stroke-linejoin="round"/>
</svg>
