<svg width="34" height="34" viewBox="0 0 34 34" fill="none" xmlns="http://www.w3.org/2000/svg">
<path d="M21.25 2.83301H8.50002C7.74857 2.83301 7.0279 3.13152 6.49655 3.66287C5.9652 4.19422 5.66669 4.91489 5.66669 5.66634V28.333C5.66669 29.0845 5.9652 29.8051 6.49655 30.3365C7.0279 30.8678 7.74857 31.1663 8.50002 31.1663H25.5C26.2515 31.1663 26.9721 30.8678 27.5035 30.3365C28.0348 29.8051 28.3334 29.0845 28.3334 28.333V9.91634L21.25 2.83301Z" stroke="black" stroke-width="2" stroke-linecap="round" stroke-linejoin="round"/>
<path d="M19.8333 2.83301V8.49967C19.8333 9.25112 20.1318 9.97179 20.6632 10.5031C21.1945 11.0345 21.9152 11.333 22.6666 11.333H28.3333" stroke="black" stroke-width="2" stroke-linecap="round" stroke-linejoin="round"/>
<path d="M14.1666 12.75H11.3333" stroke="black" stroke-width="2" stroke-linecap="round" stroke-linejoin="round"/>
<path d="M22.6666 18.417H11.3333" stroke="black" stroke-width="2" stroke-linecap="round" stroke-linejoin="round"/>
<path d="M22.6666 24.083H11.3333" stroke="black" stroke-width="2" stroke-linecap="round" stroke-linejoin="round"/>
</svg>
