<svg width="34" height="34" viewBox="0 0 34 34" fill="none" xmlns="http://www.w3.org/2000/svg">
<path d="M21.25 2.83301H12.75C11.9676 2.83301 11.3333 3.46727 11.3333 4.24967V7.08301C11.3333 7.86541 11.9676 8.49967 12.75 8.49967H21.25C22.0324 8.49967 22.6666 7.86541 22.6666 7.08301V4.24967C22.6666 3.46727 22.0324 2.83301 21.25 2.83301Z" stroke="black" stroke-width="2" stroke-linecap="round" stroke-linejoin="round"/>
<path d="M22.6667 5.66699H25.5C26.2515 5.66699 26.9721 5.9655 27.5035 6.49686C28.0348 7.02821 28.3334 7.74888 28.3334 8.50033V28.3337C28.3334 29.0851 28.0348 29.8058 27.5035 30.3371C26.9721 30.8685 26.2515 31.167 25.5 31.167H8.50002C7.74857 31.167 7.0279 30.8685 6.49655 30.3371C5.9652 29.8058 5.66669 29.0851 5.66669 28.3337V8.50033C5.66669 7.74888 5.9652 7.02821 6.49655 6.49686C7.0279 5.9655 7.74857 5.66699 8.50002 5.66699H11.3334" stroke="black" stroke-width="2" stroke-linecap="round" stroke-linejoin="round"/>
</svg>
