<svg width="38" height="38" viewBox="0 0 38 38" fill="none" xmlns="http://www.w3.org/2000/svg">
<path d="M24.5052 20.4092L26.904 33.9087C26.9308 34.0676 26.9085 34.231 26.84 34.377C26.7716 34.5229 26.6601 34.6444 26.5207 34.7254C26.3813 34.8063 26.2204 34.8427 26.0597 34.8297C25.8991 34.8168 25.7461 34.7551 25.6215 34.6528L19.9531 30.3984C19.6795 30.194 19.3471 30.0835 19.0055 30.0835C18.6639 30.0835 18.3315 30.194 18.0579 30.3984L12.3801 34.6513C12.2555 34.7533 12.1028 34.8149 11.9423 34.8279C11.7818 34.8408 11.6211 34.8046 11.4818 34.7239C11.3424 34.6432 11.231 34.5219 11.1623 34.3763C11.0937 34.2306 11.0711 34.0675 11.0976 33.9087L13.4947 20.4092" stroke="#318138" stroke-width="2" stroke-linecap="round" stroke-linejoin="round"/>
<path d="M19 22.167C24.2467 22.167 28.5 17.9137 28.5 12.667C28.5 7.42029 24.2467 3.16699 19 3.16699C13.7533 3.16699 9.5 7.42029 9.5 12.667C9.5 17.9137 13.7533 22.167 19 22.167Z" stroke="#318138" stroke-width="2" stroke-linecap="round" stroke-linejoin="round"/>
</svg>
