<svg width="38" height="38" viewBox="0 0 38 38" fill="none" xmlns="http://www.w3.org/2000/svg">
<path d="M31.6667 20.5834C31.6667 28.5001 26.125 32.4584 19.5383 34.7542C19.1934 34.8711 18.8188 34.8655 18.4775 34.7384C11.875 32.4584 6.33333 28.5001 6.33333 20.5834V9.50006C6.33333 9.08013 6.50014 8.67741 6.79708 8.38048C7.09401 8.08354 7.49674 7.91673 7.91666 7.91673C11.0833 7.91673 15.0417 6.01673 17.7967 3.61006C18.1321 3.32348 18.5588 3.16602 19 3.16602C19.4412 3.16602 19.8679 3.32348 20.2033 3.61006C22.9742 6.03256 26.9167 7.91673 30.0833 7.91673C30.5033 7.91673 30.906 8.08354 31.2029 8.38048C31.4998 8.67741 31.6667 9.08013 31.6667 9.50006V20.5834Z" stroke="#318138" stroke-width="2" stroke-linecap="round" stroke-linejoin="round"/>
</svg>
