<svg width="38" height="38" viewBox="0 0 38 38" fill="none" xmlns="http://www.w3.org/2000/svg">
<path d="M30.0833 17.417H7.91667C6.16776 17.417 4.75 18.8348 4.75 20.5837V31.667C4.75 33.4159 6.16776 34.8337 7.91667 34.8337H30.0833C31.8322 34.8337 33.25 33.4159 33.25 31.667V20.5837C33.25 18.8348 31.8322 17.417 30.0833 17.417Z" stroke="#318138" stroke-width="2" stroke-linecap="round" stroke-linejoin="round"/>
<path d="M11.0833 17.417V11.0837C11.0833 8.98403 11.9174 6.97039 13.4021 5.48573C14.8867 4.00107 16.9003 3.16699 19 3.16699C21.0996 3.16699 23.1132 4.00107 24.5979 5.48573C26.0826 6.97039 26.9166 8.98403 26.9166 11.0837V17.417" stroke="#318138" stroke-width="2" stroke-linecap="round" stroke-linejoin="round"/>
</svg>
