<?xml version="1.0" standalone="no"?>
<!DOCTYPE svg PUBLIC "-//W3C//DTD SVG 1.1//EN" "http://www.w3.org/Graphics/SVG/1.1/DTD/svg11.dtd" >
<svg xmlns="http://www.w3.org/2000/svg">
<metadata>Generated by IcoMoon</metadata>
<defs>
<font id="cannabis-icon" horiz-adv-x="1024">
<font-face units-per-em="1024" ascent="960" descent="-64" />
<missing-glyph horiz-adv-x="1024" />
<glyph unicode="&#x20;" horiz-adv-x="512" d="" />
<glyph unicode="&#xe900;" glyph-name="leaf" d="M882.952 959.718c16.491-1.786 30.964-11.83 38.38-26.667 50.322-100.644 102.668-214.835 102.668-411.905-0.005-295.956-255.746-536.275-536.284-536.333h-0.098c-97.802-0.258-192.161 36.181-264.333 102.19-22.865 20.914-42.969 44.315-60.047 69.617-43.152-44.188-65.714-103.838-65.714-171.856-0.003-26.926-21.833-48.762-48.762-48.762s-48.759 21.836-48.762 48.762c0 106.633 42.144 199.426 118 262.573-10.436 30.154-17.307 61.669-20.095 93.95-8.416 97.49 20.136 194.61 79.952 272.049 59.607 77.163 145.959 129.183 242 145.858l49.857 9.762c110.328 22.062 179.936 39.382 231.999 61.857 56.115 24.229 92.828 54.978 138.050 111.047l4.14 4.524c10.318 9.924 24.61 14.888 39.049 13.333zM865.003 824.384c-35.86-34.904-74.347-61.388-124.621-83.095-70.934-30.625-164.069-51.229-302.048-77.857-0.338-0.065-0.709-0.133-1.048-0.191-72.328-12.365-137.378-51.455-182.238-109.524-44.857-58.073-66.258-130.89-59.952-203.999 1.47-17.033 4.469-33.782 8.809-50.098 25.605 11.020 53.352 19.632 83.095 25.527 53.006 10.513 108.364 32.851 156.714 58.807 48.727 26.161 87.030 54.223 106.954 74.142 19.042 19.044 49.908 19.044 68.949 0 19.042-19.042 19.042-49.908 0-68.949-28.833-28.838-75.859-62.206-129.76-91.146-47.505-25.502-102.923-48.947-159.571-63.044l-24.334-5.432c-22.252-4.408-42.815-10.713-61.666-18.666 12.757-18.856 27.757-36.308 44.809-51.902 54.154-49.532 124.994-76.888 198.381-76.668h0.143l21.333 0.571c220.077 11.859 417.519 205.41 417.524 438.287 0 136.075-27.263 225.776-61.474 303.238z" />
<glyph unicode="&#xe901;" glyph-name="calendar" d="M705.196 960c16.010 0 28.982-12.976 28.982-28.982v-67.587h115.929c69.355 0 125.598-56.256 125.609-125.609v-676.214c0-69.36-56.249-125.609-125.609-125.609h-676.214c-69.361 0-125.609 56.249-125.609 125.609v676.214c0.010 69.353 56.254 125.609 125.609 125.609h115.929v67.587c0 16.006 12.976 28.982 28.982 28.982 15.998-0.010 28.982-12.982 28.982-28.982v-67.587h328.427v67.587c0 16 12.984 28.972 28.982 28.982zM106.249 515.643v-454.035c0-37.347 30.296-67.644 67.644-67.644h676.214c37.347 0 67.644 30.298 67.644 67.644v454.035h-811.502zM173.894 805.465c-37.342 0-67.634-30.304-67.644-67.644v-164.214h811.502v164.214c-0.011 37.34-30.304 67.644-67.644 67.644h-115.929v-67.644c-0.011-15.998-12.984-28.982-28.982-28.982-15.993 0.010-28.971 12.991-28.982 28.982v67.644h-328.427v-67.644c-0.010-15.992-12.99-28.972-28.982-28.982-16 0-28.972 12.985-28.982 28.982v67.644h-115.929z" />
<glyph unicode="&#xe902;" glyph-name="clipboard" d="M655.454 960.001c45.046-0.006 81.552-36.545 81.558-81.592v-14.077h61.911c34.314-0.003 67.248-13.646 91.513-37.912 24.255-24.263 37.91-57.172 37.913-91.482v-669.546c-0.006-34.308-13.655-67.217-37.913-91.48-24.265-24.268-57.199-37.91-91.513-37.913h-573.878c-34.311 0.003-67.217 13.652-91.482 37.913-24.263 24.261-37.905 57.168-37.912 91.48v669.546c0.003 34.317 13.645 67.216 37.912 91.482s57.165 37.909 91.482 37.912h61.877v14.077c0.006 45.047 36.545 81.585 81.592 81.592h286.94zM225.045 796.818c-16.41-0.003-32.142-6.528-43.747-18.132s-18.129-27.336-18.132-43.747v-669.546c0.005-16.406 6.53-32.143 18.132-43.747 11.603-11.596 27.341-18.128 43.747-18.131h573.878c16.409 0.003 32.174 6.529 43.78 18.131 11.596 11.602 18.125 27.344 18.131 43.747v669.546c-0.003 16.402-6.538 32.144-18.131 43.747-11.606 11.604-27.371 18.129-43.78 18.132h-61.911v-14.044c0-45.053-36.509-81.585-81.558-81.592h-286.94c-45.050 0.006-81.592 36.539-81.592 81.592v14.044h-61.877zM368.514 892.487c-7.76-0.005-14.071-6.317-14.077-14.077v-47.175c0.004-0.215 0.033-0.443 0.033-0.659 0-0.209-0.030-0.418-0.033-0.627v-47.175c0-7.764 6.314-14.071 14.077-14.077h286.94c7.761 0.006 14.043 6.312 14.043 14.077v95.635c-0.006 7.76-6.285 14.071-14.043 14.077h-286.94z" />
<glyph unicode="&#xe903;" glyph-name="heart" d="M728.695 911.836c78.313 0 153.435-31.118 208.809-86.494 55.371-55.374 86.493-130.471 86.496-208.78 0-123.964-81.778-216.144-153.416-286.361l-337.096-337.126c-5.703-5.703-13.441-8.911-21.504-8.911-8.063 0.003-15.804 3.209-21.504 8.911l-350.403 350.134c-68.597 68.259-140.078 156.597-140.078 273.353 0.003 78.311 31.12 153.406 86.494 208.78s130.469 86.492 208.78 86.494c45.425 0 85.896-6.497 125.196-23.613 31.659-13.789 61.281-33.987 91.514-61.247 30.233 27.261 59.857 47.457 91.514 61.247 39.3 17.116 79.774 23.613 125.196 23.613zM728.695 851.005c-39.328-0.001-71.096-5.554-100.9-18.534-29.999-13.067-59.922-34.496-94.307-68.88-5.703-5.698-13.441-8.91-21.504-8.91-8.063 0.003-15.804 3.209-21.504 8.91-34.382 34.381-64.28 55.813-94.276 68.88-29.804 12.981-61.598 18.534-100.931 18.534-62.178-0.003-121.805-24.706-165.77-68.673s-68.67-103.594-68.673-165.77c0-90.921 55.494-163.723 121.81-229.868l13.396-13.13 0.356-0.387 315.591-315.588 315.828 315.828c71.82 70.373 135.355 146.676 135.355 243.145-0.003 62.175-24.709 121.805-68.672 165.77-43.968 43.968-103.619 68.673-165.801 68.673z" />
<glyph unicode="&#xe904;" glyph-name="security" d="M511.996 959.999c19.055 0 37.571-5.924 52.99-16.887l6.416-5.014 0.284-0.281c79.394-69.413 189.97-120.697 273.685-120.697 22.094-0.003 43.296-8.764 58.921-24.387 15.629-15.629 24.391-36.862 24.391-58.965v-333.33c0-128.481-45.367-226.7-118.213-301.443-71.876-73.745-168.907-123.105-270.513-158.519l-0.32-0.082c-17.88-6.054-37.255-5.837-54.994 0.563v-0.041c-0.274 0.095-0.568 0.185-0.843 0.28v0.041c-101.573 35.16-198.431 84.302-270.194 157.801-72.925 74.694-118.29 172.92-118.29 301.401v333.33c0 22.103 8.758 43.335 24.388 58.965 15.626 15.623 36.827 24.385 58.924 24.387 83.687 0 194.731 51.767 273.684 120.737l0.281 0.241c16.557 14.145 37.629 21.901 59.404 21.901zM511.996 888.601c-4.761 0-9.374-1.72-12.995-4.813-86.768-75.686-213.693-138.105-320.375-138.105-3.154-0.003-6.193-1.26-8.424-3.49-2.223-2.232-3.49-5.273-3.49-8.424v-333.33c0-109.625 37.98-189.994 98.034-251.504 57.21-58.589 135.893-101.446 225.189-134.092l18.811-6.7c2.505-0.932 5.245-0.973 7.783-0.161 96.46 33.632 181.792 78.322 242.76 140.873 60.014 61.575 97.992 141.958 97.992 251.583v333.33c0 3.15-1.269 6.193-3.492 8.424-2.231 2.23-5.27 3.486-8.42 3.49-106.654 0-233.099 61.917-320.374 138.105l-2.892 2.046c-3.047 1.787-6.531 2.767-10.109 2.768z" />
<glyph unicode="&#xe905;" glyph-name="brain" d="M660.098 959.961c23.299-0.489 46.277-5.653 67.56-15.145 21.28-9.493 40.466-23.143 56.394-40.15 15.932-17.012 28.33-37.056 36.409-58.918 5.316-14.388 8.67-29.398 10.066-44.605 24.297-9.041 46.922-22.236 66.757-39.11 25.766-21.922 46.213-49.457 59.781-80.448 13.562-30.988 19.903-64.676 18.529-98.472-1.046-25.766-6.583-51.088-16.242-74.865 19.782-19.985 35.737-43.54 46.8-69.552 14.216-33.426 20.040-69.847 16.987-106.046-3.056-36.199-14.916-71.136-34.536-101.709-16.032-24.976-36.929-46.346-61.265-63.105 0.943-23.756-1.837-47.569-8.433-70.498-8.427-29.287-22.773-56.537-42.141-80.065-19.371-23.531-43.373-42.85-70.498-56.75-27.122-13.891-56.811-22.077-87.219-24.054-30.41-1.974-60.931 2.293-89.622 12.562-28.691 10.273-54.995 26.335-77.243 47.158-15.828 14.818-29.332 31.887-40.211 50.544-10.874-18.653-24.352-35.728-40.176-50.544-22.247-20.825-48.524-36.887-77.212-47.158-28.697-10.276-59.21-14.535-89.625-12.562-30.414 1.974-60.121 10.159-87.248 24.054-27.121 13.897-51.101 33.226-70.47 56.75-19.367 23.528-33.712 50.78-42.14 80.065-6.595 22.929-9.434 46.742-8.493 70.498-24.319 16.753-45.18 38.143-61.205 63.105-19.621 30.573-31.48 65.51-34.537 101.709-3.054 36.199 2.769 72.617 16.987 106.046 11.063 26.009 26.992 49.567 46.773 69.552-9.659 23.774-15.196 49.102-16.244 74.865-1.373 33.797 4.97 67.484 18.531 98.472 13.568 30.994 34.039 58.524 59.809 80.448 19.833 16.871 42.436 30.070 66.728 39.11 1.398 15.21 4.78 30.214 10.097 44.605 8.080 21.863 20.446 41.905 36.378 58.918 15.935 17.014 35.134 30.655 56.423 40.15 21.288 9.493 44.253 14.66 67.559 15.145s46.487-3.695 68.154-12.294c21.664-8.598 41.399-21.443 58.026-37.774 8.165-8.022 15.5-16.81 21.916-26.221 6.42 9.412 13.751 18.201 21.916 26.221 16.63 16.333 36.364 29.176 58.026 37.774 21.667 8.597 44.851 12.781 68.154 12.294zM365.183 899.143c-15.199-0.317-30.187-3.669-44.069-9.86-13.885-6.192-26.403-15.098-36.795-26.192s-18.458-24.169-23.728-38.427c-5.267-14.254-7.655-29.424-6.979-44.605v-0.118l0.505-6.89c1.626-15.96 6.606-31.43 14.64-45.376 8.38-14.552 3.355-33.163-11.195-41.545-14.548-8.358-33.138-3.345-41.516 11.195-7.296 12.667-12.892 26.175-16.808 40.15-11.846-5.863-22.981-13.151-33.112-21.768-18.741-15.944-33.608-35.962-43.476-58.502-9.866-22.539-14.481-47.043-13.482-71.629 0.537-13.191 2.711-26.215 6.385-38.811 14.599 7.745 32.775 2.423 40.833-12.088 8.149-14.685 2.832-33.185-11.849-41.338-8.359-4.637-16.285-10.029-23.698-16.065-0.060-0.048-0.147-0.070-0.208-0.118-20.427-16.64-36.488-38.027-46.802-62.275-10.34-24.312-14.605-50.793-12.384-77.121 2.223-26.322 10.857-51.711 25.123-73.943 14.271-22.235 33.772-40.675 56.779-53.664 0.105-0.058 0.193-0.146 0.297-0.207l8.939-4.662c21.942-10.576 46.052-16.104 70.5-16.095 16.789 0.003 30.4-13.59 30.41-30.382 0.002-16.786-13.593-30.425-30.379-30.437-21.949-0.009-43.682 3.269-64.531 9.561 1.051-8.019 2.713-15.977 4.96-23.786 6.13-21.295 16.563-41.125 30.647-58.233 14.085-17.108 31.536-31.145 51.257-41.251 19.728-10.105 41.341-16.086 63.462-17.522 22.117-1.433 44.291 1.709 65.155 9.178 20.867 7.472 40.004 19.124 56.184 34.269 16.181 15.15 29.093 33.481 37.924 53.812 8.822 20.314 13.392 42.235 13.423 64.382v282.472c-27.943-31.936-63.71-56.224-103.936-70.379-15.843-5.574-33.212 2.746-38.784 18.589-5.568 15.84 2.749 33.209 18.589 38.784 34.742 12.224 65.091 34.475 87.189 63.935 21.937 29.257 34.795 64.328 36.941 100.822v191.808c0.045 15.195-2.964 30.256-8.819 44.278-5.857 14.019-14.466 26.738-25.301 37.388-10.847 10.653-23.735 19.040-37.865 24.648-14.125 5.606-29.229 8.333-44.425 8.018zM658.821 899.143c-15.196 0.317-30.324-2.412-44.455-8.018-14.125-5.609-26.991-13.998-37.832-24.648-10.841-10.652-19.443-23.363-25.301-37.388-5.86-14.024-8.864-29.080-8.822-44.278v-191.808c2.147-36.497 15.001-71.565 36.944-100.822 20.718-27.621 48.673-48.904 80.715-61.53l6.474-2.405 2.88-1.189c13.937-6.556 20.922-22.749 15.71-37.595-5.574-15.84-22.944-24.157-38.784-18.589-40.22 14.15-75.996 38.425-103.939 70.352v-282.417l0.21-8.283c1.010-19.322 5.489-38.34 13.213-56.126 8.831-20.329 21.746-38.663 37.924-53.812 16.175-15.138 35.3-26.8 56.157-34.269 20.867-7.469 43.066-10.613 65.182-9.178 22.117 1.439 43.707 7.417 63.433 17.522 19.726 10.108 37.197 24.135 51.285 41.251 14.085 17.108 24.519 36.935 30.647 58.233 2.248 7.806 3.85 15.77 4.899 23.786-20.828-6.285-42.537-9.57-64.47-9.561-16.792 0.006-30.413 13.648-30.41 30.437 0.012 16.789 13.624 30.382 30.41 30.382 27.858-0.012 55.248 7.198 79.53 20.846 0.073 0.042 0.162 0.076 0.237 0.118 23.008 12.988 42.509 31.428 56.78 53.664 14.262 22.229 22.867 47.624 25.094 73.943 2.22 26.325-2.016 52.811-12.355 77.121-10.309 24.239-26.386 45.607-46.803 62.245-0.064 0.055-0.14 0.094-0.207 0.149-5.562 4.528-11.415 8.691-17.522 12.443l-6.207 3.622-2.642 1.633c-12.65 8.803-16.816 25.939-9.174 39.706 7.642 13.754 24.388 19.292 38.544 13.216l2.229-1.101c3.67 12.593 5.906 25.598 6.444 38.784 0.998 24.583-3.619 49.090-13.483 71.629-9.865 22.537-24.738 42.559-43.476 58.502-10.129 8.619-21.295 15.875-33.14 21.737-3.923-13.975-9.533-27.489-16.837-40.15l-52.681 30.379c9.113 15.797 14.307 33.575 15.144 51.791 0.006 0.198-0.009 0.396 0 0.594 0.679 15.179-1.685 30.352-6.949 44.605-5.267 14.254-13.341 27.334-23.729 38.427s-22.914 20.001-36.792 26.192c-13.882 6.19-28.874 9.54-44.073 9.86zM807.9 697.296c-8.399-14.535-27.003-19.527-41.545-11.136-14.529 8.392-19.507 26.978-11.136 41.516l52.681-30.379z" />
<glyph unicode="&#xe906;" glyph-name="balance" d="M511.988 911.832c16.799 0 30.416-13.618 30.416-30.416v-77.226c93.711-44.268 222.409-85.003 306.677-85.008h96.325l3.118-0.149c15.332-1.561 27.297-14.521 27.297-30.267-0.012-15.735-11.971-28.676-27.297-30.237l-3.118-0.179h-71.673c1.545-2.146 2.902-4.482 3.863-7.039l144.472-385.268c4.743-12.661 0.55-26.954-10.277-35.051-47.119-35.202-104.076-54.202-162.679-54.205-58.607 0-115.562 19.007-162.682 54.205-10.834 8.097-15.022 22.386-10.277 35.051l144.472 385.268 1.991 4.247c0.728 1.292 1.539 2.526 2.433 3.684-86.004 5.745-195.925 40.235-282.646 78.236v-692.481h210.383c16.789-0.009 30.416-13.623 30.416-30.416s-13.626-30.405-30.416-30.416h-481.565c-16.798 0-30.416 13.617-30.416 30.416s13.618 30.416 30.416 30.416h210.352v692.481c-86.714-37.997-196.617-72.488-282.62-78.236 1.831-2.364 3.337-5.032 4.425-7.931l144.472-385.268c4.745-12.664 0.557-26.954-10.277-35.051-47.121-35.202-104.072-54.205-162.68-54.205s-115.559 19.004-162.68 54.205c-10.834 8.097-15.022 22.386-10.277 35.051l144.472 385.268 1.99 4.247c0.547 0.971 1.168 1.896 1.812 2.792h-71.642c-16.789 0.003-30.404 13.628-30.416 30.416 0 16.796 13.62 30.413 30.416 30.416h96.325c84.266 0.003 212.962 40.741 306.678 85.008v77.226c0 16.796 13.62 30.413 30.416 30.416zM67.342 267.26c32.557-19.347 69.623-29.642 107.552-29.642 37.921 0 74.971 10.302 107.523 29.642l-107.523 286.718-107.552-286.718zM741.556 267.26c32.557-19.345 69.626-29.642 107.554-29.642 37.916 0.003 74.974 10.306 107.52 29.642l-107.52 286.718-107.554-286.718z" />
<glyph unicode="&#xe907;" glyph-name="clock" d="M511.979 960.001c282.772 0 512.008-229.209 512.020-511.98-0.013-282.768-229.249-512.020-512.020-512.020-282.754 0.021-511.968 229.265-511.979 512.020 0.010 282.757 229.225 511.959 511.979 511.98zM511.979 888.592c-243.297-0.020-440.56-197.27-440.569-440.57 0.010-243.297 197.273-440.549 440.569-440.569 243.314 0 440.561 197.259 440.569 440.569-0.008 243.313-197.255 440.57-440.569 440.57zM512.020 769.523c19.723-0.001 35.694-15.986 35.703-35.705v-263.692l173.992-87.176c15.282-9.687 21.016-29.595 12.756-46.133-8.274-16.547-27.639-23.875-44.568-17.451l-3.332 1.483-190.518 95.24c-12.098 6.051-19.739 18.445-19.739 31.973v285.756c0.013 19.719 15.985 35.705 35.707 35.705z" />
<glyph unicode="&#xe908;" glyph-name="users" d="M511.96 340.829c59.996 0 117.559-23.81 159.981-66.231 42.426-42.426 66.272-99.981 66.272-159.981v-95.236c-0.004-19.722-16.017-35.742-35.742-35.742-19.705 0.020-35.697 16.033-35.702 35.742v95.236c0 41.046-16.312 80.408-45.334 109.437-29.026 29.026-68.425 45.371-109.475 45.371h-285.745c-41.046-0.009-80.412-16.349-109.436-45.371-29.019-29.031-45.371-68.392-45.371-109.437v-95.236c-0.006-19.722-15.979-35.742-35.703-35.742-19.716 0.013-35.697 16.029-35.703 35.742v95.236c0 59.991 23.814 117.559 66.232 159.981 42.422 42.422 99.99 66.227 159.983 66.231h285.745zM810.823 307.896c4.63 17.889 22.027 29.080 39.916 26.356l3.61-0.723 9.025-2.526c44.821-13.581 84.421-40.771 113.209-77.905 30.706-39.617 47.376-88.319 47.417-138.439v-95.278c0-19.718-15.988-35.73-35.706-35.742-19.726 0-35.742 16.017-35.742 35.742v95.236c-0.029 34.289-11.448 67.611-32.452 94.716-18.387 23.71-43.211 41.489-71.366 51.308l-12.278 3.73-3.487 1.084c-16.978 6.276-26.767 24.54-22.146 42.442zM369.108 912.362c124.942 0 226.213-101.27 226.213-226.213-0.004-124.938-101.275-226.211-226.213-226.211-124.936 0.004-226.208 101.276-226.214 226.211 0 124.941 101.274 226.209 226.214 226.213zM707.807 905.823l3.57-0.722 9.067-2.527c44.945-13.522 84.654-40.748 113.529-77.945 30.793-39.678 47.495-88.494 47.495-138.72-0.004-50.225-16.698-99.044-47.495-138.72-30.8-39.673-73.938-67.972-122.595-80.431-19.11-4.897-38.593 6.642-43.486 25.752-4.888 19.105 6.651 38.55 25.756 43.446 33.286 8.524 62.805 27.897 83.882 55.039 21.070 27.146 32.53 60.551 32.53 94.914 0 34.366-11.461 67.766-32.53 94.914-18.44 23.752-43.334 41.558-71.567 51.348l-12.315 3.69-3.492 1.083c-16.998 6.239-26.853 24.484-22.264 42.402 4.592 17.919 22.010 29.182 39.916 26.476zM369.108 840.955c-85.483-0.005-154.807-69.322-154.807-154.807 0.006-85.481 69.327-154.803 154.807-154.808 85.482 0 154.802 69.325 154.807 154.808 0 85.487-69.32 154.807-154.807 154.807z" />
<glyph unicode="&#xe909;" glyph-name="file" d="M658.821 959.836c7.717-0.772 14.972-4.195 20.505-9.726l239.146-239.113c6.327-6.326 9.885-14.923 9.891-23.868v-621.732c0-34.316-13.652-67.25-37.914-91.517-24.266-24.266-57.204-37.877-91.517-37.88h-573.898c-34.313 0.003-67.22 13.618-91.485 37.88-24.268 24.266-37.913 57.193-37.913 91.517v765.206c0.006 34.314 13.649 67.221 37.913 91.485 24.265 24.259 57.172 37.91 91.485 37.912l433.786-0.165zM225.035 892.484c-16.406-0.003-32.145-6.534-43.748-18.133-11.601-11.601-18.126-27.341-18.133-43.748v-765.206c0-16.413 6.528-32.141 18.133-43.748 11.605-11.602 27.337-18.128 43.748-18.132h573.898c16.41 0.003 32.175 6.529 43.782 18.132 11.593 11.602 18.132 27.345 18.132 43.748v540.138h-157.585c-34.313 0.006-67.22 13.649-91.486 37.911-24.259 24.266-37.908 57.174-37.911 91.486v157.552h-348.829zM703.261 242.63c18.641 0 33.752-15.121 33.759-33.759 0-18.645-15.113-33.759-33.759-33.759h-382.588c-18.639 0.006-33.759 15.118-33.759 33.759 0.006 18.635 15.123 33.752 33.759 33.759h382.588zM703.261 433.907c18.645 0 33.759-15.113 33.759-33.759-0.006-18.638-15.118-33.759-33.759-33.759h-382.588c-18.636 0.006-33.752 15.124-33.759 33.759 0 18.641 15.12 33.752 33.759 33.759h382.588zM416.312 625.217c18.645 0 33.759-15.113 33.759-33.759s-15.113-33.759-33.759-33.759h-95.639c-18.639 0.006-33.759 15.118-33.759 33.759s15.12 33.752 33.759 33.759h95.639zM641.381 734.933c0.003-16.406 6.535-32.145 18.132-43.748 11.602-11.601 27.341-18.126 43.748-18.133l157.585 0.099-219.465 219.332v-157.552z" />
<glyph unicode="&#xe90a;" glyph-name="lock" d="M511.999 960c71.923-0.003 140.903-28.57 191.761-79.425 50.861-50.861 79.424-119.862 79.424-191.79v-162.207h65.911c69.993 0 126.741-56.75 126.741-126.741v-337.095c-0.006-69.986-56.753-126.741-126.741-126.741h-674.191c-67.797 0-123.157 53.258-126.563 120.208l-0.178 6.533v337.095c0 69.993 56.75 126.741 126.741 126.741h65.88v162.207c0 71.923 28.57 140.93 79.425 191.79 50.86 50.858 119.866 79.422 191.79 79.425zM174.904 465.748c-36.395 0-65.911-29.515-65.911-65.911v-337.095l0.326-6.743c3.381-33.223 31.467-59.167 65.583-59.167h674.191c36.392 0 65.904 29.518 65.911 65.911v337.095c0 36.395-29.515 65.911-65.911 65.911h-674.191zM511.999 899.169c-55.791-0.003-109.332-22.153-148.78-61.603-39.446-39.452-61.603-92.991-61.603-148.78v-162.207h420.738v162.207c0 55.794-22.149 109.328-61.603 148.78-39.449 39.447-92.962 61.6-148.75 61.603z" />
<glyph unicode="&#xe90b;" glyph-name="truck" d="M511.987 866.453c36.553-0.003 71.621-14.536 97.47-40.384s40.382-60.915 40.384-97.47v-49.24h120.374l5.104-0.145c11.892-0.685 23.568-3.698 34.326-8.885 12.279-5.921 23.075-14.536 31.588-25.182l162.716-203.391c12.929-16.119 20.009-36.167 20.051-56.828v-170.796c-0.003-24.15-9.606-47.335-26.685-64.414-17.076-17.073-40.263-26.649-64.411-26.653h-56.569c-18.452-54.379-69.878-93.515-130.497-93.518-60.624 0-112.068 39.135-130.529 93.518h-206.652c-18.45-54.379-69.882-93.509-130.497-93.518-60.624 0-112.069 39.135-130.529 93.518h-56.567c-24.149 0.003-47.307 9.609-64.384 26.682-17.080 17.082-26.682 40.257-26.682 64.414v514.436c0.003 36.555 14.536 71.621 40.384 97.47 25.85 25.845 60.915 40.384 97.47 40.384h374.131zM278.164 216.614c-27.187 0-49.236-22.056-49.241-49.24 0.005-27.184 22.054-49.21 49.241-49.21 27.175 0.009 49.204 22.032 49.21 49.21-0.006 27.178-22.035 49.229-49.21 49.24zM745.841 216.614c-27.187 0-49.234-22.056-49.24-49.24 0.006-27.184 22.053-49.21 49.24-49.21 27.181 0.006 49.204 22.030 49.21 49.21-0.006 27.181-22.030 49.234-49.21 49.24zM137.856 777.839c-13.052 0-25.586-5.197-34.817-14.423-9.23-9.23-14.421-21.763-14.423-34.817v-514.436c0-0.652 0.26-1.3 0.721-1.76 0.459-0.455 1.083-0.717 1.731-0.721h56.567c18.462 54.383 69.907 93.547 130.529 93.547 60.613-0.009 112.044-39.168 130.497-93.547h152.567v516.917c-0.003 13.053-5.193 25.587-14.423 34.817s-21.763 14.421-34.817 14.423h-374.131zM649.841 266.258c24.824 24.1 58.669 38.97 95.999 38.97 60.615-0.003 112.041-39.164 130.497-93.547h56.569c0.65 0.003 1.3 0.263 1.758 0.721 0.455 0.458 0.721 1.087 0.723 1.731v170.624l-0.145 0.807c-0.088 0.257-0.234 0.505-0.405 0.721l-0.029 0.059-162.806 203.479c-0.228 0.28-0.511 0.531-0.836 0.691l-1.066 0.23h-120.259v-324.485z" />
<glyph unicode="&#xe90c;" glyph-name="certificate" d="M512.001 960c176.39 0 319.382-142.992 319.382-319.382-0.003-100.362-46.359-189.84-118.758-248.388l69.805-392.664h-0.030c1.849-10.941 0.319-22.184-4.395-32.231-4.714-10.044-12.383-18.402-21.98-23.972-9.6-5.567-20.666-8.079-31.726-7.188-10.634 0.857-20.747 4.852-29.14 11.406v-0.030l-172.436 129.423c-3.048 2.254-6.753 3.443-10.543 3.446-3.824 0-7.571-1.193-10.637-3.473l0.030-0.030-172.73-129.304c-8.377-6.527-18.448-10.516-29.051-11.376-11.048-0.894-22.133 1.606-31.725 7.158-9.585 5.554-17.258 13.892-21.982 23.914-4.726 10.026-6.277 21.265-4.456 32.2l0.060 0.325 69.657 392.396c-72.39 58.547-118.726 148.032-118.729 248.388 0 176.39 142.992 319.382 319.382 319.382zM657.226 356.228c-43.582-22.299-92.906-34.992-145.225-34.992-52.327 0-101.668 12.684-145.255 34.992l-62.32-350.928 160.731 120.331c13.579 10.144 30.072 15.625 47.023 15.625 14.828-0.003 29.31-4.185 41.794-12.031l5.229-3.595 0.058-0.027 160.375-120.365-62.41 350.989zM512.001 899.165c-142.792 0-258.547-115.755-258.547-258.547 0.005-142.788 115.759-258.547 258.547-258.547s258.541 115.76 258.547 258.547c0 142.792-115.756 258.547-258.547 258.547z" />
<glyph unicode="&#xe90d;" glyph-name="arrow-left" d="M324.584 792.825c19.044 19.035 49.949 19.040 68.99 0 19.035-19.040 19.032-49.947 0-68.989l-227.088-227.088h857.514v-97.502h-857.514l227.088-227.086c19.028-19.048 19.038-49.952 0-68.987-19.038-19.042-49.946-19.030-68.99 0l-310.303 310.36c-19.042 19.042-19.041 49.887 0 68.93l310.303 310.363z" />
<glyph unicode="&#xe90e;" glyph-name="arrow-right" d="M630.429 792.825c19.036 19.040 49.945 19.035 68.987 0l310.302-310.363c19.042-19.044 19.042-49.888 0-68.93l-310.302-310.36c-19.042-19.030-49.952-19.036-68.987 0-19.042 19.036-19.030 49.945 0 68.987l227.088 227.086h-857.518v97.502h857.518l-227.088 227.088c-19.036 19.042-19.036 49.949 0 68.989z" />
<glyph unicode="&#xe90f;" glyph-name="youtube" d="M128.211 791.086c238.239 39.467 481.051 41.925 719.861 7.394l47.719-7.394 4.714-1.043c23.316-6.396 44.592-18.737 61.689-35.832 17.097-17.098 29.432-38.367 35.828-61.685 0.242-0.878 0.451-1.786 0.636-2.676 33.789-159.461 33.789-324.225 0-483.687-0.186-0.892-0.395-1.802-0.636-2.675-6.396-23.32-18.731-44.588-35.828-61.689-17.097-17.092-38.374-29.437-61.689-35.833-1.542-0.423-3.14-0.781-4.714-1.040-254.123-42.107-513.456-42.107-767.58 0-1.577 0.26-3.175 0.618-4.717 1.040-23.315 6.4-44.59 18.736-61.685 35.833s-29.437 38.369-35.832 61.689c-0.24 0.874-0.447 1.784-0.635 2.675-33.788 159.457-33.788 324.226 0 483.687l0.635 2.676c6.395 23.317 18.737 44.588 35.832 61.685s38.37 29.435 61.685 35.832c1.542 0.423 3.14 0.781 4.717 1.043zM877.555 699.919c-242.098 39.764-489.061 39.77-731.156 0-7.1-2.24-13.589-6.111-18.868-11.385-5.512-5.513-9.561-12.348-11.748-19.821-30.564-145.532-30.558-295.838 0-441.37 2.184-7.487 6.225-14.342 11.748-19.864 5.266-5.263 11.744-9.099 18.823-11.342 242.114-39.785 489.085-39.776 731.201 0 7.111 2.239 13.627 6.061 18.913 11.342 5.522 5.517 9.517 12.378 11.704 19.864 30.561 145.542 30.566 295.832 0 441.37-2.187 7.47-6.191 14.311-11.704 19.821-5.29 5.283-11.797 9.147-18.913 11.385zM396.226 627.756c14.559 8.238 32.465 8.017 46.807-0.589l232.228-139.337c13.981-8.396 22.545-23.516 22.545-39.824s-8.564-31.428-22.545-39.824l-232.228-139.336c-14.342-8.607-32.248-8.83-46.807-0.589-14.55 8.244-23.54 23.687-23.54 40.412v278.674c0 16.726 8.99 32.166 23.54 40.413zM465.578 390.719l95.474 57.286-95.474 57.332v-114.617z" />
<glyph unicode="&#xe910;" glyph-name="twitter" d="M585.313 862.769c79.925 41.639 184.194 39.045 267.005-26.228 4.045 0.977 8.741 2.221 14.002 4 12.94 4.375 26.867 10.454 40.049 16.91 13.065 6.401 24.772 12.859 33.225 17.727 4.208 2.423 7.564 4.451 9.822 5.818 1.122 0.682 2.001 1.211 2.542 1.545 0.261 0.159 0.438 0.295 0.549 0.364h0.088c16.636 10.504 38.108 9.452 53.593-2.682 13.527-10.616 19.945-27.685 17.181-44.274l-1.773-7.091v-0.092l-0.042-0.091c-0.033-0.091-0.093-0.231-0.14-0.364-0.093-0.273-0.21-0.647-0.363-1.091-0.316-0.911-0.744-2.19-1.317-3.772-1.155-3.187-2.863-7.711-5.045-13.228-4.361-11.016-10.827-26.291-19.317-43.592-14.006-28.526-34.663-64.589-61.911-96.457 60.985-493.028-484.348-847.465-912.658-563.607-17.44 11.562-24.986 33.383-18.5 53.277 6.496 19.871 25.432 32.983 46.319 32.048 63.336-2.877 126.029 10.273 180.004 37.27-202.994 112.005-292.296 376.953-176.459 590.106 7.337 13.5 20.899 22.524 36.183 24.092 15.272 1.555 30.357-4.553 40.273-16.273 82.329-97.278 204.862-158.431 331.781-168.413 0.51 92.76 52.709 166.477 124.912 204.096zM806.046 753.721c-54.46 50.815-124.796 54.004-177.687 26.456-51.885-27.032-87.131-83.603-70.867-159.549 2.891-13.502-0.345-27.634-8.863-38.5-8.523-10.867-21.467-17.409-35.273-17.819-147.804-4.346-295.301 50.877-404.737 149.958-53.98-175.964 47.038-376.129 230.551-431.193 16.214-4.868 28.546-18.181 32.138-34.728 3.58-16.542-2.125-33.76-14.864-44.908-43.343-37.921-94.655-65.71-149.594-83.183 335.622-102.579 691.591 182.472 631.56 557.74-2.351 14.728 2.505 29.679 13.047 40.228 8.458 8.46 16.333 18.071 23.725 28.137-12.046-2.968-24.786-5.18-37.363-5.182-11.781 0-23.157 4.51-31.773 12.545z" />
<glyph unicode="&#xe911;" glyph-name="instagram" d="M744.728 960c154.238 0 279.273-125.035 279.273-279.273v-465.455c0-154.238-125.035-279.273-279.273-279.273h-465.455c-154.238 0-279.273 125.035-279.273 279.273v465.455c0 154.238 125.035 279.273 279.273 279.273h465.455zM279.274 866.909c-102.825 0-186.182-83.356-186.182-186.182v-465.455c0-102.824 83.356-186.182 186.182-186.182h465.455c102.824 0 186.182 83.358 186.182 186.182v465.455c0 102.825-83.358 186.182-186.182 186.182h-465.455zM406.819 656.591c43.443 22.539 92.908 30.812 141.32 23.636 49.389-7.324 95.102-30.375 130.406-65.682 35.309-35.307 58.359-81.017 65.685-130.407 7.173-48.412-1.098-97.876-23.64-141.321-22.542-43.436-58.238-78.676-101.953-100.682-43.715-21.997-93.272-29.677-141.591-21.909-48.324 7.782-92.979 30.618-127.59 65.229s-57.449 79.267-65.227 127.59c-7.771 48.319-0.090 97.877 21.909 141.592 22.005 43.715 57.243 79.41 100.682 101.955zM534.501 588.136c-29.049 4.305-58.75-0.656-84.818-14.182-26.062-13.528-47.207-34.952-60.409-61.182-13.196-26.228-17.8-55.966-13.137-84.955 4.668-28.993 18.371-55.78 39.137-76.544 20.765-20.769 47.552-34.472 76.545-39.135 28.989-4.669 58.726-0.061 84.955 13.135 26.228 13.2 47.653 34.346 61.184 60.407 13.521 26.070 18.483 55.771 14.178 84.82-4.394 29.629-18.227 57.047-39.405 78.227-21.183 21.181-48.598 35.012-78.229 39.409zM768.457 750.545c25.707 0 46.545-20.839 46.545-46.545s-20.838-46.545-46.545-46.545h-0.456c-25.707 0-46.545 20.839-46.545 46.545s20.838 46.545 46.545 46.545h0.456z" />
<glyph unicode="&#xe912;" glyph-name="facebook-f" d="M768 959.999c25.707 0 46.545-20.839 46.545-46.545v-186.182c0-25.706-20.838-46.545-46.545-46.545h-139.636v-93.091h139.636c14.331 0 27.862-6.612 36.682-17.909 8.816-11.294 11.925-26.008 8.453-39.909l-46.545-186.182c-5.181-20.722-23.775-35.272-45.135-35.272h-93.091v-325.818c0-25.707-20.839-46.545-46.545-46.545h-186.182c-25.706 0-46.545 20.838-46.545 46.545v325.818h-93.091c-25.706 0-46.545 20.838-46.545 46.545v186.182c0 25.706 20.839 46.545 46.545 46.545h93.091v93.091c0 74.068 29.444 145.081 81.818 197.455s123.387 81.818 197.455 81.818h139.636zM628.364 866.908c-49.379 0-96.721-19.63-131.636-54.546s-54.546-82.257-54.546-131.636v-139.636c0-25.706-20.839-46.545-46.545-46.545h-93.091v-93.091h93.091c25.706 0 46.545-20.838 46.545-46.545v-325.818h93.091v325.818c0 25.707 20.839 46.545 46.545 46.545h103.317l23.273 93.091h-126.59c-25.706 0-46.545 20.839-46.545 46.545v139.636c0 24.689 9.815 48.36 27.273 65.818s41.129 27.273 65.818 27.273h93.091v93.091h-93.091z" />
<glyph unicode="&#xe913;" glyph-name="message" d="M873.412 869.647c83.167 0 150.588-67.421 150.588-150.588v-542.118c0-83.167-67.422-150.588-150.588-150.588h-722.824c-83.167 0-150.588 67.422-150.588 150.588v542.118c0 83.167 67.421 150.588 150.588 150.588h722.824zM590.823 365.529l-0.295-0.176c-23.532-14.744-50.758-22.589-78.529-22.589s-54.997 7.844-78.529 22.589l-0.294 0.176-312.707 198.765v-387.353c0-16.631 13.484-30.117 30.117-30.117h722.824c16.631 0 30.117 13.487 30.117 30.117v387.353l-312.706-198.765zM150.588 749.176c-16.634 0-30.117-13.484-30.117-30.117v-12.059l380.353-241.412c3.5-1.561 7.315-2.353 11.177-2.353 5.14 0 10.172 1.452 14.53 4.177l377 239.588v12.059c0 16.634-13.487 30.117-30.117 30.117h-722.824z" />
<glyph unicode="&#xe914;" glyph-name="filter1" d="M977.453 913.452c18.12 0 34.602-10.517 42.226-26.954 7.625-16.434 5.013-35.8-6.679-49.636l-361.363-427.271v-380.499c0-16.133-8.369-31.111-22.091-39.592-13.722-8.471-30.85-9.258-45.274-2.044l-186.179 93.091c-15.767 7.885-25.727 24.004-25.727 41.634v287.408l-361.363 427.271c-11.694 13.835-14.305 33.203-6.682 49.636 7.626 16.437 24.107 26.954 42.227 26.954h930.907zM454.455 456.635c7.102-8.401 11-19.044 11-30.047v-275.632l93.091-46.545v322.177c0 11.004 3.901 21.646 10.999 30.047l307.59 363.726h-730.27l307.59-363.726z" />
<glyph unicode="&#xe915;" glyph-name="phone" d="M281.019 959.931c33.827 0.223 66.618-11.799 92.275-33.859 22.531-19.384 38.243-45.36 45.009-74.080l2.326-12.517 0.069-0.41c5.445-41.287 15.549-81.846 30.097-120.866 9.422-25.064 11.463-52.339 5.883-78.526-5.586-26.191-18.588-50.248-37.417-69.292l-0.137-0.206-33.448-33.38c54.898-86.133 127.975-159.188 214.099-214.099l33.448 33.38 0.206 0.137c19.046 18.829 43.099 31.831 69.289 37.417 26.126 5.572 53.303 3.548 78.323-5.815h0.070c29.293-10.931 59.467-19.345 90.153-25.172l31.26-5.062c34.021-4.799 65.134-21.946 87.351-48.155 21.938-25.902 33.656-58.907 33.102-92.822l0.070-139.948-0.756-14.576c-1.457-14.478-5.162-28.676-11.011-42.061-7.81-17.875-19.283-33.943-33.656-47.133-14.366-13.182-31.324-23.234-49.795-29.482-18.477-6.248-38.097-8.595-57.527-6.836l-0.82 0.063v0.070c-150.945 16.405-295.95 67.943-423.341 150.553v0.070c-118.332 75.276-218.73 175.586-293.993 293.925-82.892 127.967-134.453 273.709-150.553 425.325l-0.069 0.684c-1.747 19.354 0.505 38.905 6.703 57.321 6.208 18.424 16.238 35.369 29.345 49.728 13.111 14.36 29.068 25.866 46.855 33.723 17.777 7.85 37 11.947 56.432 11.97l140.156-0.068zM131.355 865.535c-3.14-0.664-6.214-1.639-9.166-2.941-5.927-2.618-11.296-6.433-15.665-11.218-4.367-4.784-7.711-10.484-9.781-16.621-2.037-6.064-2.804-12.506-2.258-18.879 13.702-128.283 55.551-251.866 122.371-361.985l13.68-21.889 0.274-0.341c63.766-100.345 147.492-186.409 245.906-252.818l19.837-12.993 0.41-0.204c114.954-74.548 245.768-121.085 381.961-135.984 6.402-0.554 12.853 0.126 18.947 2.186 6.157 2.081 11.831 5.457 16.621 9.848 4.784 4.399 8.615 9.778 11.214 15.731s3.929 12.391 3.902 18.883v141.384c0.28 11.446-3.614 22.666-11.011 31.4-7.404 8.727-17.805 14.408-29.138 16.005v0.134c-48.162 6.388-95.463 18.106-140.978 35.092h-0.14c-8.342 3.131-17.412 3.838-26.126 1.982-8.644-1.842-16.67-6.065-22.989-12.243l-59.234-59.369c-14.862-14.864-37.819-17.91-56.090-7.523-124.207 70.625-227.061 173.476-297.687 297.683-10.372 18.268-7.329 41.233 7.525 56.090l59.304 59.305c6.177 6.318 10.469 14.27 12.314 22.915 1.851 8.716 1.149 17.788-1.983 26.13v0.137c-16.992 45.542-28.844 92.86-35.228 141.046-1.599 11.181-7.175 21.427-15.733 28.798-8.586 7.379-19.598 11.394-30.918 11.286h-140.498l-9.644-1.027z" />
<glyph unicode="&#xe916;" glyph-name="cart" d="M329.677 154.049c59.652 0 108.050-48.351 108.061-107.998-0.011-59.648-48.409-108.062-108.061-108.062-59.63 0.023-107.989 48.43-107.998 108.062 0.010 59.631 48.369 107.981 107.998 107.998zM822.371 154.049c59.654 0 108.050-48.351 108.062-107.998-0.012-59.648-48.408-108.062-108.062-108.062-59.637 0.012-107.987 48.424-107.998 108.062 0.012 59.637 48.361 107.987 107.998 107.998zM329.677 64.452c-10.159-0.017-18.388-8.238-18.404-18.402l0.371-3.768c1.734-8.364 9.156-14.675 18.032-14.698 10.18 0 18.449 8.29 18.465 18.466-0.010 8.888-6.315 16.303-14.699 18.034l-3.766 0.368zM822.371 64.452c-10.165-0.012-18.385-8.232-18.402-18.402l0.373-3.768c1.731-8.37 9.141-14.681 18.028-14.698 10.182 0 18.449 8.29 18.466 18.466-0.012 8.888-6.317 16.303-14.698 18.034l-3.768 0.368zM158.323 957.774c27.43-2.386 50.462-22.43 56.313-49.772l37.235-173.95h708.941c19.167-0.007 37.276-8.705 49.276-23.65 11.995-14.959 16.568-34.569 12.408-53.29l-73.846-332.765-0.063 0.057c-7.485-33.928-26.278-64.342-53.349-86.139-27.089-21.796-60.821-33.715-95.591-33.773l-438.107 0.12c-35.049-0.461-69.234 11.045-96.761 32.79-27.876 22.032-47.193 53.125-54.647 87.865l-108.432 506.279h-38.468c-34.922 0-63.23 28.311-63.232 63.232 0 34.923 28.309 63.232 63.232 63.232h89.596l5.494-0.247zM333.754 351.775l1.357-4.326c1.706-4.217 4.477-7.956 8.090-10.808 4.806-3.796 10.793-5.816 16.918-5.678h439.342c5.988 0.012 11.816 2.106 16.486 5.862 4.659 3.756 7.915 8.979 9.204 14.819v0.126l56.806 255.825h-602.978l54.77-255.825z" />
<glyph unicode="&#xe917;" glyph-name="filter-btn" d="M692.706 237.176c33.268 0 60.235-26.967 60.235-60.235v-30.117h165.646l6.174-0.295c30.37-3.090 54.061-28.757 54.061-59.94s-23.69-56.85-54.061-59.94l-6.174-0.295h-165.646v-30.117c0-33.268-26.967-60.235-60.235-60.235s-60.235 26.967-60.235 60.235v180.706c0 33.268 26.967 60.235 60.235 60.235zM512 146.823c33.267 0 60.235-26.967 60.235-60.235s-26.968-60.235-60.235-60.235h-406.588c-33.267 0-60.235 26.967-60.235 60.235s26.968 60.235 60.235 60.235h406.588zM331.294 598.587c33.267 0 60.235-26.968 60.235-60.235v-180.706c0-33.268-26.968-60.235-60.235-60.235s-60.235 26.967-60.235 60.235v30.117h-165.646c-33.267 0-60.235 26.968-60.235 60.235s26.968 60.235 60.235 60.235h165.646v30.117c0 33.267 26.968 60.235 60.235 60.235zM918.588 508.234c33.268 0 60.235-26.968 60.235-60.235s-26.967-60.235-60.235-60.235h-406.588c-33.267 0-60.235 26.968-60.235 60.235s26.968 60.235 60.235 60.235h406.588zM602.353 959.999c33.268 0 60.235-26.968 60.235-60.235v-30.117h256c33.268 0 60.235-26.968 60.235-60.235s-26.967-60.235-60.235-60.235h-256v-30.117c0-33.267-26.967-60.235-60.235-60.235s-60.235 26.968-60.235 60.235v180.706c0 33.267 26.968 60.235 60.235 60.235zM421.647 869.645c33.267 0 60.235-26.968 60.235-60.235s-26.968-60.235-60.235-60.235h-316.235c-33.267 0-60.235 26.968-60.235 60.235s26.968 60.235 60.235 60.235h316.235z" />
<glyph unicode="&#xe918;" glyph-name="capsule" d="M724.234 955.241c12.995 6.376 28.217 6.344 41.184-0.091l64.002-31.774c12.8-6.437 26.942-9.821 41.273-9.909h60.227c25.703-0.007 46.546-20.845 46.546-46.546v-60.502c0.005-11.073 1.825-21.545 5.32-30.91l4.045-9 0.684-1.318 31.638-63.774c6.428-12.967 6.465-28.19 0.088-41.183-6.381-12.993-18.447-22.293-32.639-25.137l-170.138-34.001c13.796-33.725 20.863-69.879 20.681-106.321-0.191-36.594-7.652-72.803-21.91-106.503-14.201-33.565-34.929-63.951-60.911-89.505l0.047-0.042-93.094-93.094c-25.55-25.983-55.987-46.663-89.552-60.865-33.7-14.262-69.909-21.724-106.501-21.915-36.442-0.182-72.596 6.884-106.321 20.686l-34.001-170.143c-2.844-14.192-12.144-26.257-25.137-32.639-12.993-6.377-28.216-6.335-41.183 0.093l-64.002 31.773c-9.605 4.831-19.973 7.931-30.592 9.23l-10.682 0.68h-60.229c-25.703 0-46.539 20.844-46.546 46.546v60.227c-0.088 14.331-3.472 28.473-9.909 41.278l-0.136 0.223-31.637 63.779c-6.435 12.968-6.467 28.184-0.091 41.18 6.381 13 18.439 22.296 32.637 25.14l170.096 34.044c-13.791 33.714-20.819 69.848-20.637 106.276 0.188 36.595 7.65 72.799 21.91 106.504 14.261 33.703 35.048 64.25 61.184 89.867l92.776 92.776c25.552 25.985 55.984 46.662 89.549 60.866 33.703 14.259 69.907 21.722 106.502 21.91 36.432 0.182 72.562-6.845 106.276-20.637l34.049 170.096 1.364 5.227c3.859 11.904 12.4 21.828 23.772 27.41zM115.217 181.584l4.682-9.411h-0.046c12.808-25.554 19.599-53.734 19.774-82.318v-14.229h14.228c28.566-0.177 56.737-6.935 82.275-19.727h0.045l9.364-4.636 29.228 146.273c-2.277 2.132-4.565 4.25-6.772 6.456-2.226 2.225-4.354 4.566-6.5 6.865l-146.277-29.273zM558.546 680.051c-24.056-0.215-47.84-5.171-70.002-14.545-7.973-3.375-15.7-7.286-23.092-11.727v-437.787c24.051 0.219 47.85 5.129 70.006 14.499 7.987 3.384 15.686 7.368 23.088 11.823v437.738zM335.133 531.138c-17.355-17.007-31.168-37.304-40.638-59.684-9.467-22.38-14.423-46.43-14.545-70.728-0.12-24.293 4.579-48.399 13.818-70.867 9.242-22.464 22.871-42.869 40.046-60.046 11.507-11.506 24.498-21.347 38.546-29.413v327.966l-37.228-37.229zM651.64 327.634l37.228 37.228c17.358 17.003 31.172 37.307 40.64 59.683s14.42 46.43 14.545 70.729c0.121 24.292-4.58 48.398-13.819 70.866-9.239 22.463-22.873 42.87-40.044 60.047-11.515 11.512-24.489 21.431-38.55 29.501v-328.054zM749.146 698.507c2.295-2.146 4.636-4.274 6.861-6.5 2.206-2.208 4.329-4.496 6.456-6.773l146.278 29.228-4.636 9.364v0.046c-13.815 26.336-19.727 54.978-19.732 82.548v13.954h-14.224c-28.585 0.175-56.769 6.964-82.322 19.774v-0.045l-9.407 4.682-29.273-146.276z" />
<glyph unicode="&#xe919;" glyph-name="oil" d="M512 959.999c23.241 0 43.247-16.403 47.81-39.19 22.039-110.197 88.777-217.28 177.714-288.429 106.281-85.026 164.571-190.691 164.571-306.286 0-103.458-41.082-202.698-114.239-275.856s-172.397-114.239-275.856-114.239c-103.46 0-202.7 41.082-275.857 114.239s-114.238 172.397-114.238 275.856c0 115.595 58.289 221.26 164.571 306.286 88.936 71.149 155.674 178.232 177.714 288.429l1.048 4.191c6.042 20.579 24.973 35 46.762 35zM512 762.619c-39.286-79.892-96.388-151.882-164.571-206.428-88.765-71.012-128-150.642-128-230.095 0-77.595 30.846-151.991 85.714-206.857s129.261-85.714 206.856-85.714c77.595 0 151.991 30.847 206.857 85.714s85.714 129.262 85.714 206.857c0 79.453-39.234 159.082-128 230.095-68.183 54.547-125.284 126.536-164.571 206.428z" />
<glyph unicode="&#xe91a;" glyph-name="drop" d="M745.261 959.996c36.652 0.186 73.015-6.906 106.914-20.846 33.894-13.941 64.661-34.487 90.575-60.399s46.459-56.686 60.399-90.574c13.941-33.899 21.030-70.263 20.848-106.916-0.191-36.647-7.663-72.892-21.943-106.64-14.219-33.608-34.968-64.035-60.986-89.619l0.043-0.043-466.070-466.070c-25.585-26.022-56.054-46.724-89.663-60.943-33.748-14.28-69.996-21.752-106.64-21.943-36.652-0.183-73.017 6.907-106.916 20.848-33.891 13.941-64.661 34.485-90.574 60.399s-46.458 56.685-60.399 90.575c-13.94 33.899-21.032 70.26-20.846 106.914 0.188 36.649 7.659 72.893 21.939 106.641s35.092 64.331 61.262 89.984l465.752 465.749c25.584 26.020 56.054 46.723 89.663 60.944 33.748 14.28 69.995 21.75 106.641 21.939zM148.472 344.818c-17.378-17.025-31.209-37.356-40.691-59.761-9.481-22.408-14.443-46.489-14.565-70.821-0.121-24.329 4.585-48.457 13.836-70.96 9.255-22.498 22.899-42.926 40.1-60.122 17.201-17.203 37.628-30.845 60.123-40.102 22.501-9.253 46.631-13.954 70.959-13.837 24.331 0.126 48.411 5.083 70.822 14.565 22.406 9.484 42.732 23.317 59.762 40.693l200.399 200.4-260.342 260.344-200.4-200.402zM745.76 866.78c-24.329-0.123-48.41-5.082-70.821-14.565-22.403-9.481-42.735-23.313-59.761-40.691l-200.402-200.4 260.344-260.342 200.4 200.399c17.374 17.029 31.209 37.355 40.693 59.762 9.479 22.408 14.44 46.488 14.565 70.822 0.117 24.328-4.587 48.458-13.837 70.959-9.257 22.498-22.899 42.925-40.102 60.123-17.199 17.201-37.626 30.845-60.122 40.1-22.503 9.253-46.632 13.957-70.96 13.836z" />
<glyph unicode="&#xe91b;" glyph-name="star" d="M487.728 921.102c2.244 4.533 5.709 8.348 10.006 11.016s9.254 4.082 14.312 4.082c5.059 0 10.014-1.414 14.309-4.082 4.301-2.668 7.766-6.483 10.009-11.016l118.261-239.543c7.792-15.767 19.29-29.407 33.513-39.751s30.743-17.081 48.144-19.635l264.474-38.703c5.012-0.727 9.717-2.841 13.593-6.102 3.871-3.263 6.752-7.543 8.319-12.359s1.756-9.973 0.543-14.889c-1.213-4.917-3.779-9.395-7.403-12.93l-191.265-186.249c-12.615-12.292-22.050-27.466-27.502-44.212-5.447-16.751-6.742-34.572-3.779-51.932l45.154-263.144c0.886-5.007 0.343-10.167-1.562-14.883s-5.1-8.8-9.215-11.79c-4.116-2.99-8.985-4.762-14.059-5.115-5.079-0.353-10.147 0.727-14.637 3.118l-236.42 124.302c-15.579 8.181-32.908 12.456-50.504 12.456-17.594 0-34.927-4.275-50.504-12.456l-236.368-124.302c-4.489-2.376-9.553-3.446-14.619-3.082-5.066 0.358-9.928 2.13-14.035 5.12-4.108 2.985-7.293 7.065-9.197 11.775s-2.447 9.855-1.57 14.857l45.103 263.093c2.98 17.37 1.689 35.202-3.761 51.963-5.449 16.756-14.895 31.941-27.519 44.233l-191.265 186.198c-3.656 3.531-6.246 8.017-7.476 12.949s-1.051 10.109 0.518 14.944c1.569 4.834 4.464 9.13 8.355 12.4s8.622 5.381 13.655 6.091l264.423 38.652c17.419 2.534 33.963 9.263 48.205 19.608s25.758 23.996 33.555 39.778l118.21 239.543z" />
<glyph unicode="&#xe91c;" glyph-name="location" d="M480.274 959.495c-132.977-12.204-245.787-78.855-319.146-188.544-15.603-23.335-37.122-68.096-46.717-97.206-46.298-140.43-18.537-278.158 88.45-439.175 44.527-67.024 96.507-129.204 165.489-198.046 49.837-49.791 87.984-83.699 101.631-90.359 12.193-6.406 26.641-10.165 41.966-10.165s29.774 3.76 42.471 10.406l-0.505-0.241c13.694 6.66 51.933 40.662 101.631 90.313 181.045 180.905 275.457 354.265 275.597 505.919 0.093 157.849-91.617 304.661-233.817 374.432-35.913 18.405-77.611 32.096-121.599 38.835l-2.297 0.289c-19.19 2.887-76.573 5.077-93.154 3.54zM564.113 862.755c138.985-21.286 250.211-134.654 270.333-275.642 3.493-24.546 3.121-74.384-0.791-95.948-17.653-98.324-80.718-209.317-187.426-329.765-35.724-40.335-128.506-130.416-134.328-130.416-3.074 0-27.387 22.031-65.86 59.618-145.088 141.827-234.236 281.186-255.615 399.724-4.052 22.45-4.564 71.729-0.978 96.787 16.159 110.609 85.986 201.947 181.742 247.829l1.957 0.845c39.963 18.584 67.77 25.85 117.374 30.648 13.042 1.258 55.287-0.838 73.591-3.68zM482.044 724.933c-52.539-8.197-103.168-42.525-129.903-88.123-16.5-27.215-26.265-60.104-26.265-95.275 0-77.77 47.745-144.388 115.524-172.14l1.24-0.45c20.54-8.51 44.394-13.452 69.403-13.452 77.7 0 144.257 47.707 171.976 115.429l0.449 1.239c8.535 20.496 13.491 44.305 13.491 69.271 0 24.923-4.94 48.692-13.892 70.382l0.449-1.227c-24.574 60.37-78.375 104.242-143.348 114.352l-1.041 0.133c-8.607 1.512-18.517 2.377-28.628 2.377-10.406 0-20.597-0.915-30.5-2.67l1.047 0.154zM536.307 631.22c34.991-10.010 61.244-38.959 67.182-74.769l0.074-0.546c4.658-30.414-4.379-57.896-26.269-79.833-18.677-18.771-39.87-27.76-65.347-27.76-23.987 0-44.807 8.291-62.739 24.919-61.948 57.569-21.611 161.157 62.739 161.157 6.66 0 17.606-1.444 24.36-3.167z" />
<glyph unicode="&#xe91d;" glyph-name="minus" d="M928 517.332h-832.004v-138.668h832.004v138.668z" />
<glyph unicode="&#xe91e;" glyph-name="plus" d="M928 517.332h-346.668v346.668h-138.668v-346.668h-346.668v-138.668h346.668v-346.668h138.668v346.668h346.668z" />
<glyph unicode="&#xe91f;" glyph-name="upload" d="M499.061 893.895c-5.549-1.705-36.7-31.577-124.392-118.847-64.437-64.013-119.486-120.554-122.477-125.672-10.030-16.641-5.12-40.114 10.454-50.356 7.684-4.905 20.909-7.040 31.577-4.905 8.963 1.705 14.936 7.252 94.308 86.413l84.921 84.499 0.424-232.357 0.642-232.574 4.905-7.896c14.936-23.899 49.928-23.899 64.864 0l4.905 7.896 1.067 232.145 1.067 231.933 81.084-81.295c45.875-45.875 84.71-82.998 89.403-85.562 16.641-8.532 39.47-3.202 49.077 11.522 4.905 7.684 7.040 20.909 4.905 31.577-1.705 8.963-8.319 16.215-118.419 126.527-64.225 64.225-120.13 119.275-124.18 122.045-8.963 6.185-23.468 8.319-34.141 4.905zM89.822 347.455c-10.242-3.838-21.34-15.791-24.111-25.39-1.491-5.549-1.923-43.316-1.491-112.234 0.856-93.453 1.279-105.194 4.693-115.649 12.377-37.767 36.276-65.292 69.774-81.084 29.016-13.445 11.098-13.013 380.223-12.377 320.48 0.642 335.84 0.856 347.15 4.693 38.191 12.801 65.292 36.276 81.084 69.774 11.945 25.818 12.801 33.71 12.801 141.674 0 58.676-0.856 101.137-2.135 105.83-2.768 10.242-15.791 22.831-26.457 25.602-15.578 4.27-32.006-2.347-42.037-17.071l-5.12-7.252-1.067-104.763c-0.856-90.258-1.491-105.83-4.482-112.234-4.482-9.819-21.764-24.966-31.577-27.737-4.905-1.279-122.259-2.135-335.416-2.135-361.874 0-338.618-0.856-353.554 13.445-4.057 3.838-9.175 10.666-11.734 15.36-4.482 8.319-4.693 11.098-5.761 113.302l-1.067 104.763-5.12 7.467c-10.454 15.148-29.23 21.764-44.596 16.003z" />
<glyph unicode="&#xe920;" glyph-name="notepad" d="M352.872 958.427c-35.731-7.191-62.023-38.203-65.169-77.079l-1.573-17.304h-37.529c-29.888 0-40.899-0.899-54.832-4.494-44.72-11.461-77.079-42.248-92.585-87.641-4.045-11.91-4.27-26.517-4.27-370.791v-358.431l5.169-16.405c14.607-46.293 55.956-80.9 105.844-88.091 20.225-2.921 587.422-2.921 607.647 0 21.573 3.146 38.652 9.663 55.956 21.573 17.978 12.135 30.562 26.517 41.124 46.517 15.506 30.113 14.832 8.315 14.157 401.577l-0.674 353.936-5.843 14.832c-8.315 21.573-16.854 35.281-31.012 49.439-14.382 14.157-28.090 22.922-49.439 30.787-13.483 5.169-18.652 5.843-59.102 6.742l-44.495 0.899v8.539c0 35.955-17.753 64.495-48.989 79.327l-15.056 7.191-155.058 0.449c-85.169 0-159.328-0.674-164.271-1.573zM665.91 890.561c5.169-4.719 5.169-5.169 5.169-59.326v-54.607l-5.843-4.494c-5.843-4.719-7.641-4.719-154.159-4.719h-148.092l-5.393 5.618-5.618 5.393v53.259c0 51.686 0.225 53.484 4.944 58.652l4.719 5.169h299.104l5.169-4.944zM286.804 791.459c0-35.281 17.753-65.169 46.742-79.551l12.809-6.292h330.341l12.809 6.292c28.989 14.382 46.742 44.27 46.742 79.551v7.416l38.877-0.225c23.596 0 41.349-1.124 45.843-2.697 14.832-5.618 26.742-16.405 34.158-30.787l6.966-14.157v-701.581l-5.393-11.236c-6.067-13.034-16.629-24.045-29.439-31.012l-8.989-4.944-302.026-0.674c-339.33-0.674-315.060-1.798-334.61 16.18-5.618 4.944-12.584 14.382-15.281 20.45l-5.393 11.236 0.225 350.566c0 262.475 0.674 352.363 2.697 357.757 5.618 14.832 16.405 26.742 30.787 34.158l14.157 6.966h77.978v-7.416zM310.625 526.962c-9.214-2.921-18.877-13.034-21.573-22.247-4.494-16.854 7.191-36.63 23.596-39.776 37.529-6.966 55.282 44.045 20.674 59.776-10.337 4.719-13.034 4.944-22.697 2.247zM498.717 524.939c-13.483-6.292-19.101-16.18-17.978-31.236 0.674-8.539 2.247-13.259 6.292-17.528 11.011-12.135 11.686-12.135 121.574-12.135 95.057 0 102.473 0.225 109.664 4.27 10.337 5.393 16.405 16.18 16.405 28.764 0 10.562-4.27 18.427-15.056 26.292-6.067 4.494-8.989 4.719-108.765 5.169-97.529 0.674-103.147 0.449-112.136-3.596zM304.782 283.813c-11.686-8.090-16.405-15.955-16.405-27.641 0-17.304 13.708-31.012 30.562-31.012 34.382 0 45.394 44.27 15.056 59.551-10.562 5.393-20.225 4.944-29.214-0.899zM498.043 284.712c-24.495-12.135-23.82-45.843 1.124-56.855 9.663-4.27 14.607-4.494 112.136-3.82 99.102 0.674 102.248 0.899 108.316 5.393 10.787 7.865 15.056 15.731 15.056 26.742 0 11.686-4.719 19.551-16.405 27.641l-7.416 4.944h-102.473c-93.035 0-103.147-0.449-110.338-4.045z" />
<glyph unicode="&#xe921;" glyph-name="check" d="M960 704c0-16.376-6.25-32.76-18.75-45.24l-512-512c-12.45-12.56-28.85-18.76-45.25-18.76s-32.76 6.25-45.24 18.75l-256 256c-12.5 12.45-18.76 28.85-18.76 45.25 0 36.56 29.9 64 64 64 16.376 0 32.76-6.25 45.24-18.75l210.76-210.85 466.8 466.8c12.4 12.54 28.8 18.8 45.2 18.8 34.2 0 64-27.4 64-64z" />
<glyph unicode="&#xe922;" glyph-name="circle-tick" d="M468.895 958.154c-138.566-12.438-267.53-80.739-353.942-187.882-102.124-126.346-138.566-290.66-99.287-446.901 34.478-136.602 123.945-253.564 246.581-322.52 99.505-55.863 221.487-77.029 333.867-58.045 102.779 17.239 196.61 64.591 270.367 135.947 86.849 84.449 137.475 185.263 154.277 307.899 5.892 43.206 2.837 118.708-6.983 163.442-4.146 19.857-24.222 37.096-43.424 37.315-19.203 0-36.442-10.692-43.861-27.277-5.019-10.692-5.019-20.294-0.655-45.825 4.801-28.368 6.328-78.557 3.273-106.925-5.674-51.935-17.894-95.578-39.497-140.53-42.552-88.158-108.889-154.495-196.829-196.61-114.344-54.772-246.145-54.772-361.143 0-211.667 100.815-298.734 356.124-193.119 566.482 77.029 153.622 246.581 246.145 416.788 227.597 51.498-5.455 94.923-18.33 142.712-41.679 36.223-17.894 42.77-19.857 56.299-16.802 14.184 3.273 25.095 11.565 31.641 24.44 8.947 18.112 6.546 37.096-6.765 51.717-9.165 10.038-56.954 34.26-93.614 47.571-68.519 24.876-145.33 34.914-216.686 28.586zM961.621 864.104c-5.892-1.964-56.954-51.498-228.688-223.014l-220.832-220.614-56.299 56.081c-30.768 30.768-59.572 57.608-63.718 59.791-26.404 13.529-61.973-6.11-65.028-36.005-2.182-24.003-5.237-20.076 79.866-105.834 51.717-51.717 80.957-79.648 86.631-82.266 11.129-5.237 25.967-5.237 37.096 0 6.11 2.837 83.139 78.557 248.982 244.836 235.671 236.107 240.471 241.126 242.872 251.818 8.292 36.005-24.658 65.9-60.882 55.208z" />
<glyph unicode="&#xe923;" glyph-name="user" d="M473.585 959.497c-88.299-17.082-155.185-66.886-192.477-143.877-27.669-57.021-32.962-119.817-15.398-181.41 24.781-86.855 93.833-153.982 182.613-177.801 21.413-5.774 28.39-6.496 63.758-6.496s42.345 0.722 63.758 6.496c89.021 23.819 157.35 90.464 182.613 178.041 17.564 60.39 12.27 123.667-15.158 180.928-32.481 68.089-92.63 117.892-167.455 138.343-15.398 4.331-27.187 5.534-57.743 6.015-21.172 0.481-41.142 0.241-44.51-0.241zM552.26 853.635c26.466-6.977 58.224-27.187 76.991-49.082 12.030-13.714 21.654-31.278 28.631-51.728 6.015-16.842 6.737-22.857 6.737-48.119 0-25.022-0.962-31.278-6.256-46.916-3.609-9.864-9.383-23.338-12.992-30.075-9.383-16.842-42.345-48.841-60.39-58.465-30.796-16.361-74.344-21.654-108.99-13.473-55.818 12.992-102.494 61.111-114.283 117.652-18.045 86.134 40.42 170.583 127.516 183.816 17.082 2.647 45.232 0.962 63.036-3.609zM309.98 341.405c-104.659-22.857-179.244-96.239-203.545-200.417-5.053-21.172-7.699-147.004-3.609-165.29 10.827-48.6 78.194-53.894 97.442-7.94 3.128 7.458 3.85 20.451 3.85 71.698 0 71.698 2.406 89.261 15.879 116.689 19.729 40.42 55.097 69.532 99.848 82.284 14.195 4.090 28.39 4.331 192.237 4.331 197.048 0 189.349 0.481 223.514-16.842 36.811-18.767 62.314-48.6 76.269-89.021 6.737-19.007 6.737-20.21 8.18-92.63 1.203-79.878 1.444-80.6 16.12-94.073 10.346-9.864 20.932-14.195 34.405-14.195 21.172 0 36.571 9.143 46.435 27.669 5.053 8.902 5.293 13.714 6.015 68.57 1.203 87.096-4.090 121.982-25.744 167.214-32.24 67.367-90.224 115.967-165.049 137.862l-21.654 6.256-192.477 0.722c-158.072 0.241-195.364-0.241-208.116-2.887z" />
<glyph unicode="&#xe924;" glyph-name="circle-check" d="M464.44 957.801c-79.135-7.434-168.341-38.848-233.328-82.012-202.633-135.009-282.967-385.842-196.638-612.935 44.603-117.743 136.927-218.46 251.313-274.574 74.099-36.21 145.56-52.517 229.011-52.277 79.854 0.24 152.035 17.026 221.817 51.078 153.474 75.298 258.987 220.379 283.207 389.919 4.796 34.292 5.515 100.237 1.199 132.851-20.143 152.514-102.156 283.447-230.45 367.378-94.722 62.109-212.945 91.365-326.131 80.574zM551.968 876.748c255.15-23.98 433.563-264.742 382.485-515.576-26.378-129.014-110.789-239.323-229.011-298.554-192.561-96.401-426.609-36.21-547.949 140.524-87.288 127.335-100.477 289.681-34.532 429.007 77.216 163.066 249.874 261.385 429.007 244.599zM699.446 620.159c-3.357-1.439-61.869-58.272-129.973-126.616l-124.218-123.978-56.833 56.833c-31.414 31.174-60.19 58.032-63.787 59.231-23.021 8.873-50.598-6.954-53.716-30.935-3.117-22.541-3.837-21.822 74.339-100.237 39.807-40.047 76.497-74.818 81.293-77.456 10.791-5.515 23.021-5.755 35.011-0.959 10.551 4.556 275.054 266.9 286.084 283.926 17.266 26.378 0.959 59.951-29.736 61.869-6.954 0.24-15.108-0.48-18.465-1.679z" />
<glyph unicode="&#xe925;" glyph-name="circle-close" d="M457.846 957.474c-95.508-10.831-193.231-51.2-266.338-110.031-120.123-97.231-191.508-245.662-191.508-399.262 0-134.4 54.892-267.077 149.908-362.092s227.692-149.908 362.092-149.908c134.4 0 267.077 54.892 362.092 149.908s149.908 227.692 149.908 362.092c0 114.708-41.108 231.631-112.738 320.492-85.908 106.338-209.969 173.538-348.8 189.046-25.846 2.954-78.277 2.708-104.615-0.246zM557.538 878.951c135.138-15.508 256.246-92.308 324.431-206.031 146.462-243.446 25.846-557.538-245.415-639.262-172.308-52.185-362.338 9.846-468.923 152.369-111.508 149.169-118.4 343.877-17.969 498.462 87.877 135.631 249.354 212.431 407.877 194.462zM664.615 652.244c-3.446-1.231-39.138-35.2-79.262-75.569l-73.354-73.108-73.108 73.108c-79.262 78.769-79.015 78.769-100.923 74.585-12.062-2.215-26.831-16.985-29.046-29.046-4.185-21.908-4.185-21.662 74.585-100.923l73.108-73.108-71.877-72.123c-39.385-39.385-73.6-75.569-75.815-80.246-5.415-11.077-3.446-27.815 4.923-38.646s24.615-16.985 39.877-14.523c11.569 1.723 13.538 3.446 85.662 75.323l73.846 73.6 72.369-72.369c74.585-74.585 78.523-77.785 97.723-77.785 3.692 0 11.323 2.215 16.985 4.923 18.462 8.862 25.846 31.754 16.985 50.708-2.215 4.923-35.692 39.631-75.077 78.277-39.138 38.154-71.138 70.4-71.138 71.631s32.492 34.954 72.369 75.077c62.523 62.769 72.862 74.092 75.077 82.954 8.369 31.262-23.385 59.077-53.908 47.262z" />
<glyph unicode="&#xe926;" glyph-name="hide" d="M81.178 878.818c19.32 19.315 50.645 19.312 69.967 0l791.677-791.674c19.302-19.326 19.312-50.653 0-69.969-19.317-19.307-50.648-19.302-69.969 0l-139.405 139.405c-66.026-32.137-141.037-54.937-221.447-54.942-195.729 0.010-361.706 134.308-451.167 223.238-22.167 22.039-42.776 41.439-54.408 77.072-4.858 14.894-6.425 31.947-6.426 46.049 0 14.104 1.565 31.146 6.426 46.049 11.635 35.654 32.295 55.043 54.506 77.119 36.581 36.36 84.601 78.766 141.094 116.838l-120.848 120.848c-19.311 19.32-19.311 50.647 0 69.967zM273.396 616.633c-56.607-35.934-105.438-78.605-142.689-115.63-24.345-24.198-27.040-27.964-30.2-37.641-0.014-0.070-0.111-0.543-0.29-1.401-0.19-0.91-0.443-2.106-0.628-3.576-0.376-2.997-0.579-6.592-0.579-10.389 0-3.795 0.203-7.393 0.579-10.389 0.185-1.466 0.439-2.668 0.628-3.576 0.165-0.794 0.259-1.248 0.29-1.353 3.158-9.675 5.829-13.459 30.104-37.592 86.631-86.119 227.767-194.481 381.392-194.49 50.351 0.005 99.627 11.771 146.554 30.875l-82.631 82.631c-19.366-9.257-41.064-14.542-63.923-14.547-81.969 0.010-148.434 66.471-148.442 148.441 0 22.878 5.336 44.515 14.593 63.879l-104.758 104.758zM512.003 794.354c195.737-0.011 361.757-134.306 451.211-223.239 22.162-22.035 42.785-41.486 54.408-77.119 4.849-14.884 6.373-31.907 6.378-46 0.005-14.099-1.514-31.144-6.378-46.049-11.618-35.604-32.251-55-54.359-76.974-0.050-0.050-0.099-0.099-0.148-0.143-14.181-14.097-29.994-29.089-47.302-44.309-20.515-18.041-51.82-16.006-69.871 4.493-18.036 20.515-16.016 51.775 4.493 69.821 15.641 13.761 30.009 27.333 42.909 40.153 0.045 0.050 0.099 0.099 0.143 0.148 24.25 24.101 26.912 27.863 30.054 37.494 0 0 0.148 0.436 0.341 1.354 0.188 0.909 0.396 2.149 0.579 3.624 0.371 2.986 0.579 6.559 0.579 10.34 0 3.787-0.203 7.393-0.579 10.389-0.183 1.47-0.391 2.711-0.579 3.625-0.089 0.424-0.179 0.774-0.243 1.015-0.040 0.147-0.079 0.283-0.099 0.339-3.157 9.688-5.858 13.489-30.104 37.593-86.624 86.12-227.805 194.477-381.435 194.488-14.492-0.001-28.926-0.977-43.201-2.803-27.093-3.457-51.85 15.722-55.327 42.811-3.467 27.099 15.667 51.898 42.762 55.374 18.248 2.334 36.883 3.575 55.764 3.576z" />
<glyph unicode="&#xe927;" glyph-name="download" d="M819.2 38.4c28.278 0 51.2-22.922 51.2-51.2s-22.922-51.2-51.2-51.2h-614.4c-28.277 0-51.2 22.922-51.2 51.2s22.923 51.2 51.2 51.2h614.4zM512 960c28.277 0 51.2-22.923 51.2-51.2v-593.198l168.602 168.598c19.994 19.995 52.403 19.995 72.397 0 19.999-19.995 19.999-52.405 0-72.398l-255.998-256c-19.995-19.999-52.405-19.999-72.4 0l-256 256c-19.995 19.994-19.995 52.404 0 72.398s52.405 19.995 72.4 0l168.6-168.598v593.198c0 28.277 22.923 51.2 51.2 51.2z" />
<glyph unicode="&#xe928;" glyph-name="setting" d="M337.089 930.538c19.47 4.065 39.658 3.965 59.153-0.409 23.723-5.329 44.901-18.747 69.564-33.556l16.598-9.912c3.171-1.904 3.464-2.115 3.911-2.365 6.463-3.601 13.698-5.579 21.142-5.82 0.563-0.018 1.308-0.045 4.59-0.046 3.315 0 4.018 0.027 4.59 0.046 7.431 0.243 14.657 2.24 21.1 5.82 0.512 0.286 1.173 0.681 3.906 2.319l16.505 9.866 0.549 0.273c24.336 14.579 45.306 27.738 68.791 33.010 19.336 4.337 39.412 4.529 58.878 0.5 23.717-4.912 45.060-17.841 69.885-32.145l22.963-13.231c24.932-14.369 46.856-26.356 63.017-44.468 13.246-14.844 23.163-32.373 29.099-51.379 7.212-23.113 6.253-48.001 5.774-76.477l-0.363-19.824c-0.047-2.822-0.056-3.787-0.047-4.546 0.116-7.399 2.030-14.707 5.55-21.279l4.544-7.911c3.892-6.261 9.261-11.544 15.644-15.367 0.577-0.347 1.331-0.794 3.906-2.229l16.962-9.412c0.056-0.032 0.126-0.059 0.182-0.091 24.946-13.878 46.95-25.472 63.338-43.239 13.437-14.576 23.624-31.887 29.873-50.697 7.617-22.956 7.119-47.858 7.184-76.478l0.088-26.734c0.065-28.424 0.656-53.365-6.909-76.384-6.23-18.93-16.44-36.339-29.966-51.015-16.487-17.888-38.695-29.556-63.878-43.514l-20.737-11.504c-6.383-3.804-11.798-9.126-15.733-15.457-0.424-0.689-0.931-1.545-2.272-3.864-1.62-2.808-1.961-3.417-2.226-3.911-3.506-6.537-5.439-13.865-5.55-21.324-0.009-0.745 0-1.694 0.047-4.502l0.363-20.458c0.475-28.187 1.429-52.97-5.727-75.98-5.899-18.944-15.793-36.413-28.964-51.238-16.049-18.065-37.811-30.091-62.426-44.38l-23.052-13.367c-24.816-14.401-46.195-27.447-69.978-32.419-19.56-4.083-39.742-3.897-59.153 0.456-17.785 3.995-34.137 12.483-51.606 22.735l-35.51 21.277c-2.193 1.317-2.622 1.587-2.952 1.774-6.463 3.599-13.749 5.625-21.189 5.867-0.577 0.019-1.271 0.042-4.595 0.042-3.287 0-3.971-0.023-4.544-0.042-7.384-0.237-14.61-2.217-21.096-5.82-0.545-0.303-1.215-0.749-3.911-2.366l-16.505-9.819c-24.57-14.712-45.669-28.019-69.294-33.332-19.392-4.353-39.5-4.516-58.926-0.498-23.713 4.907-45.008 17.837-69.838 32.144l-23.007 13.232c-24.9 14.349-46.848 26.348-63.018 44.469-13.256 14.852-23.168 32.377-29.099 51.378-7.227 23.159-6.307 48.114-5.82 76.929l0.364 18.963c0.057 3.399 0.056 4.185 0.045 4.818-0.13 7.375-1.989 14.568-5.365 20.961-0.248 0.465-0.471 0.796-2.41 4.181-1.76 3.078-2.086 3.706-2.41 4.227-3.895 6.295-9.266 11.556-15.595 15.369-0.475 0.289-0.871 0.517-4.274 2.412l-16.641 9.275c-25.022 13.921-46.988 25.509-63.381 43.285-13.498 14.638-23.65 31.953-29.873 50.694-7.603 22.921-7.164 47.663-7.229 76.431l-0.091 26.19c-0.066 28.88-0.641 53.887 6.957 76.979 6.23 18.924 16.441 36.342 29.964 51.015 16.489 17.884 38.677 29.545 63.882 43.513l16.823 9.321c3.151 1.746 3.519 1.922 3.956 2.183 6.374 3.803 11.755 9.088 15.687 15.413 0.257 0.415 0.404 0.674 2.274 3.91 1.614 2.796 1.962 3.369 2.228 3.865 3.566 6.655 5.436 14.006 5.547 21.324-0.002 0.108 0.005 0.263 0 0.454-0.022 0.803-0.061 2.249-0.091 4.047l-0.364 19.779c-0.483 28.709-1.413 53.561 5.775 76.659 5.892 18.925 15.772 36.393 28.963 51.242 15.842 17.826 37.256 29.746 61.472 43.786l0.273 0.182 0.909 0.546 22.825 13.231c24.833 14.413 46.19 27.448 69.975 32.418zM375.828 839.239c-6.436 1.443-13.142 1.501-19.688 0.136-5.589-1.167-11.905-4.147-42.285-21.779l-0.136-0.045-21.779-12.595 0.045-0.046-0.272-0.182c-0.298-0.182-0.607-0.371-0.909-0.546-30.099-17.469-35.799-21.419-39.556-25.643-4.378-4.928-7.667-10.764-9.639-17.096-1.697-5.46-2.179-12.499-1.591-47.423l0.364-19.779c0.020-1.175 0.017-1.997 0.045-3.046 0.026-0.925 0.072-2.551 0.046-4.365-0.333-22.431-6.109-44.357-16.596-63.927-1.121-2.092-2.33-4.159-3.683-6.502-1.107-1.917-2.488-4.292-3.774-6.366-11.772-18.968-27.908-34.881-47.105-46.331-2.090-1.246-4.425-2.532-6.502-3.683l-16.823-9.321c-30.772-17.053-36.672-20.933-40.557-25.143-4.488-4.869-7.874-10.688-9.958-17.005-1.797-5.46-2.399-12.548-2.319-47.694l0.091-26.148c0.079-34.826 0.695-41.889 2.501-47.332 2.109-6.351 5.487-12.114 9.912-16.915 3.865-4.19 9.631-8.050 40.194-25.048l16.687-9.28c2.271-1.261 4.786-2.594 7.048-3.953 19.016-11.453 35.017-27.33 46.695-46.195 1.354-2.189 2.633-4.409 4.092-6.956 1.228-2.147 2.689-4.646 3.91-6.956 10.274-19.457 15.722-41.033 16.096-62.882 0.042-2.514 0.005-4.963-0.046-7.957l-0.318-18.958c-0.592-35.054-0.117-42.131 1.591-47.607 1.977-6.328 5.277-12.151 9.685-17.096 3.807-4.265 9.597-8.227 40.057-25.779l22.962-13.279c30.335-17.478 36.656-20.435 42.239-21.594 6.497-1.345 13.205-1.308 19.643 0.135 5.56 1.252 11.824 4.376 41.875 22.371l16.505 9.866c2.484 1.485 4.444 2.673 6.502 3.818 19.409 10.788 41.108 16.789 63.335 17.506h0.047c2.393 0.074 4.772 0.088 7.5 0.088 2.756 0 5.182-0.009 7.594-0.088 22.241-0.721 44.045-6.742 63.52-17.595 1.942-1.085 3.813-2.207 5.592-3.273l17.506-10.504c30.175-18.12 36.464-21.254 42.057-22.506 6.523-1.462 13.237-1.485 19.69-0.14 5.578 1.168 11.928 4.162 42.285 21.78l23.052 13.414c30.087 17.464 35.794 21.417 39.556 25.644 4.39 4.944 7.719 10.788 9.684 17.096 1.657 5.341 2.082 12.236 1.499 46.74l-0.363 20.458c-0.051 3.161-0.033 5.22 0 7.412 0.33 22.306 5.988 44.273 16.552 63.971 1.117 2.086 2.296 4.134 3.636 6.458 1.638 2.836 2.696 4.604 3.818 6.411 11.779 18.972 27.954 34.882 47.151 46.33 2.021 1.206 4.064 2.314 6.365 3.594l0.093 0.042 16.822 9.321c30.803 17.069 36.675 20.979 40.558 25.188 4.493 4.879 7.924 10.681 10.006 17.008 1.756 5.355 2.305 12.315 2.226 47.104l-0.088 26.734c-0.079 34.952-0.666 41.882-2.459 47.288-2.082 6.275-5.48 12.057-9.954 16.914-3.855 4.177-9.629 8.026-40.148 25.007v0.045h-0.047l-17.050 9.503c-2.677 1.488-4.576 2.548-6.551 3.728-19.033 11.406-35.129 27.195-46.875 46.104-1.308 2.107-2.784 4.708-3.818 6.502-1.359 2.356-2.552 4.431-3.683 6.547-10.508 19.623-16.212 41.525-16.552 63.836-0.033 2.219-0.056 4.332 0 7.547l0.363 19.779c0.586 34.873 0.14 41.794-1.545 47.196-1.975 6.322-5.308 12.141-9.731 17.096-3.813 4.271-9.568 8.264-39.967 25.78l-23.005 13.276c-30.343 17.485-36.661 20.485-42.238 21.643-6.453 1.334-13.158 1.272-19.644-0.182-5.541-1.245-11.77-4.334-41.74-22.278-0.047-0.029-0.13-0.023-0.182-0.046l-16.459-9.866c-2.407-1.442-4.418-2.661-6.504-3.82-19.457-10.82-41.191-16.791-63.38-17.505-2.403-0.077-4.804-0.091-7.547-0.091-2.71 0-5.186 0.014-7.594 0.091-22.236 0.718-43.994 6.695-63.472 17.55-2.165 1.206-4.463 2.642-6.502 3.865l-16.596 9.958c-30.167 18.11-36.475 21.207-42.057 22.46zM512.002 680.784c128.563-0.006 232.79-104.233 232.794-232.794 0-128.563-104.231-232.79-232.794-232.794-128.56 0.009-232.792 104.231-232.793 232.794 0.005 128.559 104.235 232.785 232.793 232.794zM512.002 587.666c-77.13-0.008-139.671-62.544-139.675-139.676 0.001-77.134 62.543-139.667 139.675-139.676 77.139 0.005 139.676 62.538 139.676 139.676-0.005 77.133-62.543 139.67-139.676 139.676z" />
<glyph unicode="&#xe929;" glyph-name="bag-cart" d="M512.002 927.547c128.913-0.007 236.406-91.59 261.055-213.236 11.616-0.148 22.273-0.472 31.847-1.197 18.559-1.406 36.979-4.52 55.206-12.696 27.516-12.347 51.003-32.238 67.696-57.342 11.061-16.642 17.157-34.316 21.595-52.398 4.278-17.436 7.779-38.757 11.861-63.274l49.644-297.742c0.048-0.266 0.112-0.56 0.154-0.832 5.525-33.148 10.241-61.398 12.074-84.608 1.87-23.706 1.284-47.822-7.545-71.596-13.012-35.018-37.884-64.398-70.301-82.994-22.006-12.622-45.706-17.146-69.412-19.203-23.226-2.009-51.935-1.977-85.594-1.977h-556.56c-33.656 0-62.331-0.032-85.544 1.977-23.717 2.056-47.453 6.58-69.466 19.203-32.374 18.569-57.271 47.934-70.298 82.994-8.835 23.786-9.417 47.928-7.545 71.65 1.834 23.221 6.595 51.488 12.124 84.662l0.104 0.724 49.641 297.742c4.087 24.522 7.577 45.834 11.864 63.274 4.448 18.087 10.539 35.77 21.594 52.398 16.687 25.092 40.165 44.991 67.696 57.342 18.229 8.174 36.652 11.291 55.208 12.696 9.557 0.722 20.2 1.049 31.793 1.197 24.645 121.655 132.182 213.236 261.108 213.236zM283.467 607.849c-26.446 0-43.35-0.062-56.301-1.041-12.263-0.927-17.098-2.491-19.669-3.642-9.143-4.104-16.956-10.718-22.531-19.097-1.568-2.358-3.929-6.88-6.869-18.836-3.097-12.603-5.908-29.257-10.251-55.312l-49.745-298.417-0.052-0.053c-5.84-35.034-9.593-58.004-10.979-75.55-1.346-17.056 0.204-23.359 1.249-26.172 4.327-11.632 12.637-21.419 23.467-27.632 2.626-1.498 8.572-4.044 25.549-5.515 17.546-1.518 40.825-1.561 76.386-1.561h556.56c35.551 0 58.825 0.043 76.386 1.561 17.040 1.476 22.992 4.023 25.597 5.515 10.79 6.197 19.129 15.953 23.465 27.632 1.045 2.808 2.541 9.096 1.199 26.119-1.385 17.541-5.142 40.479-10.976 75.502h-0.053v0.154l-49.745 298.417c-4.348 26.083-7.156 42.751-10.252 55.364-2.931 11.946-5.307 16.437-6.869 18.784-5.562 8.363-13.379 14.985-22.533 19.097-2.568 1.152-7.401 2.713-19.667 3.642-12.942 0.979-29.854 1.041-56.299 1.041h-457.071zM512.002 820.981c-69.577 0-128.626-44.511-150.587-106.566h301.175c-21.958 62.053-81.017 106.559-150.588 106.566z" />
<glyph unicode="&#xe92a;" glyph-name="logout" d="M785.055 959.998c30.919 0 57.572 0.061 79.387-1.722 22.482-1.839 44.823-5.928 66.331-16.889 32.046-16.329 58.22-42.388 74.615-74.556 10.957-21.51 15.047-43.871 16.885-66.333 1.781-21.804 1.724-48.418 1.724-79.278v-546.499c0-30.857 0.063-57.429-1.724-79.223-1.838-22.46-5.928-44.828-16.885-66.331-16.378-32.125-42.542-58.214-74.615-74.553-21.504-10.962-43.867-15.053-66.331-16.89-21.788-1.781-48.373-1.724-79.223-1.724h-261.998c-30.861 0-57.473-0.057-79.278 1.724-22.461 1.838-44.823 5.928-66.332 16.89-32.156 16.384-58.221 42.547-74.556 74.61-10.96 21.51-15.051 43.856-16.889 66.331-1.783 21.823-1.722 48.469-1.722 79.387v2.833c0 31.42 25.47 56.889 56.889 56.889s56.889-25.469 56.889-56.889v-2.833c0-32.802 0.016-53.999 1.333-70.109 1.26-15.411 3.454-21.129 4.889-23.945 5.479-10.758 14.178-19.519 24.833-24.946 2.805-1.428 8.536-3.573 23.945-4.836 16.095-1.314 37.263-1.331 70-1.331h261.998c32.722 0 53.868 0.023 69.945 1.331 15.377 1.257 21.134 3.408 23.945 4.836 10.735 5.467 19.507 14.217 24.946 24.889 1.428 2.805 3.573 8.528 4.836 23.945 1.314 16.082 1.331 37.211 1.331 69.945v546.499c0 32.737-0.017 53.904-1.331 70-1.263 15.408-3.408 21.139-4.836 23.945-5.422 10.643-14.177 19.347-24.946 24.833-2.816 1.436-8.528 3.627-23.945 4.889-16.105 1.316-37.308 1.333-70.109 1.333h-261.666c-32.798 0-53.986-0.072-70.111-1.389-15.462-1.263-21.191-3.402-24-4.833-10.701-5.453-19.38-14.132-24.833-24.833-1.432-2.809-3.57-8.538-4.834-24-1.317-16.126-1.389-37.312-1.389-70.11v-2.778c-0.014-31.407-25.478-56.889-56.889-56.889s-56.875 25.482-56.889 56.889v2.778c0 30.923-0.061 57.557 1.722 79.388 1.838 22.486 5.922 44.865 16.889 66.389 16.361 32.106 42.449 58.194 74.556 74.556 21.524 10.967 43.902 15.051 66.389 16.889 21.832 1.783 48.466 1.722 79.388 1.722h261.666zM471.78 658.888c22.216 22.216 58.228 22.216 80.444 0l170.665-170.667c22.221-22.217 22.221-58.228 0-80.445l-170.665-170.665c-22.216-22.221-58.228-22.221-80.444 0-22.216 22.215-22.216 58.226 0 80.441l73.556 73.557h-488.444c-31.419 0-56.889 25.47-56.889 56.889s25.47 56.889 56.889 56.889h488.444l-73.556 73.556c-22.216 22.217-22.216 58.228 0 80.445z" />
<glyph unicode="&#xe92b;" glyph-name="show" d="M512.048 794.36c195.727-0.018 361.663-134.311 451.118-223.239 22.147-22.015 42.829-41.435 54.457-77.071 4.859-14.899 6.378-31.947 6.378-46.049s-1.519-31.15-6.378-46.049c-11.628-35.637-32.32-55.062-54.457-77.070-89.455-88.925-255.395-223.219-451.118-223.239-195.738 0-361.749 134.303-451.212 223.239-22.169 22.039-42.777 41.429-54.409 77.070-4.862 14.901-6.426 31.945-6.426 46.049s1.566 31.148 6.426 46.049c11.631 35.637 32.236 55.029 54.409 77.071 89.463 88.938 255.474 223.239 451.212 223.239zM512.048 695.4c-153.635 0-294.805-108.365-381.438-194.489-24.276-24.135-26.943-27.905-30.104-37.592-0.030-0.1-0.122-0.545-0.29-1.354-0.19-0.91-0.442-2.101-0.628-3.576-0.377-3-0.579-6.589-0.579-10.389s0.203-7.389 0.579-10.389c0.185-1.473 0.438-2.665 0.628-3.576 0.167-0.806 0.26-1.251 0.29-1.353 3.16-9.686 5.82-13.451 30.104-37.594 86.633-86.124 227.803-194.488 381.438-194.488 153.625 0.020 294.718 108.367 381.347 194.488 24.284 24.142 26.992 27.916 30.148 37.594 0.035 0.115 0.129 0.561 0.292 1.353 0.188 0.909 0.396 2.107 0.579 3.576 0.376 2.999 0.628 6.59 0.628 10.389s-0.253 7.39-0.628 10.389c-0.183 1.469-0.391 2.666-0.579 3.576-0.163 0.794-0.258 1.24-0.292 1.354-3.157 9.68-5.868 13.452-30.148 37.592-86.629 86.122-227.721 194.471-381.347 194.489zM512.048 596.441c81.958-0.026 148.44-66.475 148.44-148.44s-66.481-148.414-148.44-148.44c-81.98 0-148.438 66.458-148.438 148.44s66.459 148.44 148.438 148.44zM512.048 497.481c-27.326 0-49.478-22.153-49.478-49.48s22.153-49.48 49.478-49.48c27.308 0.026 49.48 22.169 49.48 49.48s-22.172 49.454-49.48 49.48z" />
</font>
</defs>
</svg>
